<svg width="70" height="70" viewBox="0 0 68 68" fill="none" xmlns="http://www.w3.org/2000/svg">
<path d="M45.3335 11.3335H22.6668C16.4076 11.3335 11.3335 16.4076 11.3335 22.6668V45.3335C11.3335 51.5927 16.4076 56.6668 22.6668 56.6668H45.3335C51.5927 56.6668 56.6668 51.5927 56.6668 45.3335V22.6668C56.6668 16.4076 51.5927 11.3335 45.3335 11.3335Z" stroke="#A7C63E" stroke-width="3.66667" stroke-linecap="round" stroke-linejoin="round"/>
<path d="M34 42.5C38.6944 42.5 42.5 38.6944 42.5 34C42.5 29.3056 38.6944 25.5 34 25.5C29.3056 25.5 25.5 29.3056 25.5 34C25.5 38.6944 29.3056 42.5 34 42.5Z" stroke="#A7C63E" stroke-width="3.66667" stroke-linecap="round" stroke-linejoin="round"/>
<path d="M46.75 21.25V21.251" stroke="#A7C63E" stroke-width="3.66667" stroke-linecap="round" stroke-linejoin="round"/>
</svg>
