<svg width="75" height="75" viewBox="0 0 75 75" fill="none" xmlns="http://www.w3.org/2000/svg">
<path d="M51.5625 15.625C53.4943 15.6269 55.4049 16.0267 57.1753 16.7996C58.9457 17.5725 60.5379 18.7019 61.8526 20.1173C63.1672 21.5327 64.1762 23.2038 64.8165 25.0263C65.4568 26.8489 65.7147 28.7838 65.5742 30.7104C65.4337 32.6371 64.8977 34.5141 63.9997 36.2245C63.1017 37.9348 61.861 39.4418 60.3549 40.6515C58.8488 41.8612 57.1096 42.7476 55.2457 43.2554C53.3819 43.7632 51.4335 43.8816 49.5219 43.6031L35.9375 53.0062V53.125C35.9376 55.5163 35.024 57.8172 33.3835 59.5571C31.743 61.2969 29.4997 62.3441 27.1125 62.4844L26.5625 62.5C24.4006 62.4996 22.3052 61.7522 20.6309 60.3843C18.9567 59.0165 17.8065 57.1122 17.375 54.9937L9.375 51.5625V40.625L20.3437 46.1094C21.5295 45.053 22.965 44.3165 24.5147 43.9692C26.0643 43.622 27.6769 43.6756 29.2 44.125L37.7219 32.1938C37.3549 30.1675 37.4374 28.0853 37.9635 26.0944C38.4897 24.1035 39.4466 22.2525 40.7668 20.6721C42.087 19.0917 43.7381 17.8205 45.6036 16.9484C47.469 16.0763 49.5033 15.6245 51.5625 15.625V15.625Z" stroke="#A7C63E" stroke-width="3.66667" stroke-linecap="round" stroke-linejoin="round"/>
<path d="M51.5625 32.8125C53.2884 32.8125 54.6875 31.4134 54.6875 29.6875C54.6875 27.9616 53.2884 26.5625 51.5625 26.5625C49.8366 26.5625 48.4375 27.9616 48.4375 29.6875C48.4375 31.4134 49.8366 32.8125 51.5625 32.8125Z" fill="black" stroke="#A7C63E" stroke-width="3.66667" stroke-linecap="round" stroke-linejoin="round"/>
</svg>
