<svg width="66" height="66" viewBox="0 0 66 66" fill="none" xmlns="http://www.w3.org/2000/svg">
<path d="M60.5 11.0273C57.75 12.3748 55.055 12.922 52.25 13.7498C49.1673 10.271 44.5968 10.0785 40.205 11.723C35.8133 13.3675 32.9368 17.388 33 21.9998V24.7498C24.0763 24.978 16.1288 20.9135 11 13.7498C11 13.7498 -0.500501 34.1905 22 43.9998C16.852 47.429 11.7178 49.7418 5.5 49.4998C14.597 54.458 24.5108 56.163 33.0935 53.6715C42.9385 50.8115 51.029 43.4333 54.1338 32.381C55.0599 29.0196 55.5198 25.5469 55.5005 22.0603C55.495 21.3755 59.653 14.4373 60.5 11.0245V11.0273Z" stroke="#A7C63E" stroke-width="3.66667" stroke-linecap="round" stroke-linejoin="round"/>
</svg>
