<?xml version="1.0" standalone="no"?>
<!DOCTYPE svg PUBLIC "-//W3C//DTD SVG 20010904//EN"
 "http://www.w3.org/TR/2001/REC-SVG-20010904/DTD/svg10.dtd">
<svg version="1.0" xmlns="http://www.w3.org/2000/svg"
 width="300.000000pt" height="300.000000pt" viewBox="0 0 300.000000 300.000000"
 preserveAspectRatio="xMidYMid meet">
<metadata>
Created by potrace 1.10, written by Peter Selinger 2001-2011
</metadata>
<g transform="translate(0.000000,300.000000) scale(0.100000,-0.100000)"
fill="#000000" stroke="none">
<path d="M69 2843 c-13 -16 -12 -17 4 -4 9 7 17 15 17 17 0 8 -8 3 -21 -13z"/>
<path d="M1390 2599 c-419 -34 -805 -339 -938 -744 -56 -167 -71 -405 -37
-570 92 -444 425 -777 870 -870 93 -19 308 -22 406 -5 141 24 313 95 442 181
80 54 222 196 276 276 86 129 157 301 181 442 17 98 14 313 -5 406 -71 341
-285 621 -590 773 -189 94 -378 129 -605 111z m362 -73 c125 -32 221 -74 326
-142 213 -139 375 -362 441 -604 120 -444 -58 -914 -441 -1164 -104 -68 -200
-110 -327 -143 -123 -32 -340 -36 -466 -9 -382 83 -693 371 -799 740 -165 568
168 1160 739 1317 166 45 361 47 527 5z"/>
<path d="M1123 1845 c-44 -19 -67 -66 -60 -124 11 -102 128 -135 185 -51 42
62 20 149 -43 176 -41 17 -42 17 -82 -1z m78 -26 c30 -16 48 -66 38 -103 -28
-98 -149 -79 -149 24 0 68 57 109 111 79z"/>
<path d="M1793 1845 c-85 -37 -81 -178 6 -214 39 -17 76 -7 112 29 54 54 34
157 -38 186 -39 17 -40 17 -80 -1z m91 -36 c22 -17 26 -28 26 -69 0 -41 -4
-52 -26 -69 -15 -12 -37 -21 -49 -21 -12 0 -34 9 -49 21 -21 17 -26 29 -26 65
0 80 66 119 124 73z"/>
<path d="M545 1329 c-4 -6 -5 -12 -2 -15 2 -3 7 2 10 11 7 17 1 20 -8 4z"/>
<path d="M1087 1103 c-4 -3 -7 -14 -7 -24 0 -23 156 -101 250 -126 87 -23 253
-23 340 0 93 24 250 104 250 128 0 28 -16 31 -59 10 -85 -44 -205 -75 -328
-86 -103 -8 -288 31 -394 85 -43 22 -43 22 -52 13z m616 -108 c-17 -8 -44 -17
-60 -21 -47 -10 -164 -14 -158 -5 3 5 28 9 55 9 28 1 54 3 58 6 4 2 30 7 56
10 27 3 52 8 54 11 3 3 10 5 16 4 6 0 -3 -7 -21 -14z m-238 -27 c6 -6 -12 -7
-50 -3 -33 4 -64 11 -70 17 -7 6 11 7 50 3 33 -4 65 -12 70 -17z"/>
<path d="M2655 2379 c-4 -6 -5 -12 -2 -15 2 -3 7 2 10 11 7 17 1 20 -8 4z"/>
<path d="M169 833 c-13 -16 -12 -17 4 -4 9 7 17 15 17 17 0 8 -8 3 -21 -13z"/>
<path d="M2719 573 c-13 -16 -12 -17 4 -4 16 13 21 21 13 21 -2 0 -10 -8 -17
-17z"/>
<path d="M419 263 c-13 -16 -12 -17 4 -4 16 13 21 21 13 21 -2 0 -10 -8 -17
-17z"/>
</g>
</svg>
