<?xml version="1.0" standalone="no"?>
<!DOCTYPE svg PUBLIC "-//W3C//DTD SVG 20010904//EN"
 "http://www.w3.org/TR/2001/REC-SVG-20010904/DTD/svg10.dtd">
<svg version="1.0" xmlns="http://www.w3.org/2000/svg"
 width="300.000000pt" height="309.000000pt" viewBox="0 0 300.000000 309.000000"
 preserveAspectRatio="xMidYMid meet">
<metadata>
Created by potrace 1.10, written by Peter Selinger 2001-2011
</metadata>
<g transform="translate(0.000000,309.000000) scale(0.100000,-0.100000)"
fill="#000000" stroke="none">
<path d="M771 2733 c28 -56 54 -82 67 -68 3 3 0 5 -6 5 -7 0 -12 5 -12 11 0 6
-12 26 -27 44 -16 17 -34 40 -41 51 -7 10 1 -9 19 -43z"/>
<path d="M900 2766 c0 -10 33 -60 45 -68 29 -18 56 -48 52 -55 -3 -5 6 -9 21
-9 15 0 43 -3 62 -7 l35 -8 -27 16 c-15 8 -39 16 -54 17 -17 2 -36 15 -51 35
-14 18 -29 31 -33 28 -5 -3 -11 3 -15 14 -6 19 -35 50 -35 37z"/>
<path d="M720 2753 c0 -6 8 -17 18 -24 16 -13 16 -13 2 6 -8 11 -16 22 -17 24
-2 2 -3 0 -3 -6z"/>
<path d="M890 2698 c0 -9 5 -20 10 -23 13 -8 13 5 0 25 -8 13 -10 13 -10 -2z"/>
<path d="M706 2686 c3 -9 10 -16 14 -16 5 0 16 -7 24 -16 9 -8 16 -12 16 -7 0
8 -24 32 -48 47 -8 5 -10 2 -6 -8z"/>
<path d="M2067 2672 c-15 -9 -26 -21 -24 -27 5 -13 -34 -43 -73 -57 -42 -14
-33 -20 12 -8 21 6 51 27 71 49 20 22 38 37 41 33 3 -3 6 2 6 11 0 20 1 20
-33 -1z"/>
<path d="M782 2660 c0 -14 2 -19 5 -12 2 6 2 18 0 25 -3 6 -5 1 -5 -13z"/>
<path d="M700 2630 c19 -18 52 -41 73 -51 32 -17 37 -17 37 -4 0 9 -5 13 -10
10 -6 -4 -25 4 -43 17 -18 13 -45 32 -62 42 -28 17 -28 16 5 -14z"/>
<path d="M800 2641 c0 -5 7 -12 16 -15 24 -9 28 -7 14 9 -14 17 -30 20 -30 6z"/>
<path d="M958 2623 c-4 -13 0 -19 13 -19 14 0 16 3 6 16 -6 8 -12 16 -13 18
-1 1 -4 -5 -6 -15z"/>
<path d="M1985 2630 c-3 -6 1 -7 9 -4 18 7 21 14 7 14 -6 0 -13 -4 -16 -10z"/>
<path d="M1924 2614 c-19 -15 -19 -15 1 -6 11 5 26 7 34 4 8 -3 11 0 7 7 -10
15 -19 14 -42 -5z"/>
<path d="M1180 2610 c0 -5 5 -10 10 -10 6 0 10 5 10 10 0 6 -4 10 -10 10 -5 0
-10 -4 -10 -10z"/>
<path d="M1280 2609 c0 -3 9 -9 19 -12 13 -3 18 0 15 7 -5 13 -34 18 -34 5z"/>
<path d="M1240 2600 c0 -5 7 -7 15 -4 8 4 15 8 15 10 0 2 -7 4 -15 4 -8 0 -15
-4 -15 -10z"/>
<path d="M1348 2598 c12 -6 22 -15 22 -20 0 -4 5 -8 12 -8 6 0 21 -8 32 -17
20 -17 20 -17 7 0 -12 15 -11 17 8 17 11 0 21 -4 21 -9 0 -13 81 -1 106 16 21
14 44 14 54 1 3 -3 14 0 24 8 18 13 17 14 -21 14 -22 0 -59 -7 -82 -15 -50
-17 -44 -17 -106 6 -27 10 -61 19 -75 18 l-25 0 23 -11z"/>
<path d="M1841 2601 c-7 -5 -29 -6 -48 -4 -27 4 -39 0 -54 -16 -11 -12 -26
-18 -32 -15 -9 5 -9 4 -1 -5 9 -10 17 -9 37 4 17 11 49 17 98 18 39 0 67 3 60
5 -6 2 -9 8 -5 13 7 11 -36 12 -55 0z"/>
<path d="M1665 2590 c-3 -5 7 -7 26 -5 42 5 50 15 11 15 -17 0 -33 -4 -37 -10z"/>
<path d="M945 2580 c3 -5 13 -10 21 -10 8 0 12 5 9 10 -3 6 -13 10 -21 10 -8
0 -12 -4 -9 -10z"/>
<path d="M1290 2580 c0 -5 5 -10 11 -10 5 0 7 5 4 10 -3 6 -8 10 -11 10 -2 0
-4 -4 -4 -10z"/>
<path d="M2136 2582 c-2 -4 4 -8 14 -8 10 0 16 4 14 8 -3 4 -9 8 -14 8 -5 0
-11 -4 -14 -8z"/>
<path d="M2244 2578 c-3 -4 5 -5 17 -3 30 6 36 14 9 12 -12 -1 -24 -5 -26 -9z"/>
<path d="M885 2559 c-11 -16 -1 -19 13 -3 7 8 8 14 3 14 -5 0 -13 -5 -16 -11z"/>
<path d="M1785 2561 c-3 -5 -2 -12 3 -15 5 -3 9 1 9 9 0 17 -3 19 -12 6z"/>
<path d="M830 2556 c0 -2 7 -7 16 -10 8 -3 12 -2 9 4 -6 10 -25 14 -25 6z"/>
<path d="M920 2547 l-25 -10 23 -5 c26 -4 36 1 31 16 -3 6 -14 5 -29 -1z"/>
<path d="M793 2529 c-2 -22 13 -34 22 -19 3 5 1 10 -6 10 -8 0 -9 4 0 13 8 10
7 14 -2 14 -7 0 -14 -8 -14 -18z"/>
<path d="M1080 2540 c0 -6 7 -10 15 -10 8 0 15 2 15 4 0 2 -7 6 -15 10 -8 3
-15 1 -15 -4z"/>
<path d="M1220 2546 c0 -2 8 -10 18 -17 15 -13 16 -12 3 4 -13 16 -21 21 -21
13z"/>
<path d="M1656 2534 c-5 -14 -4 -15 9 -4 17 14 19 20 6 20 -5 0 -12 -7 -15
-16z"/>
<path d="M2268 2532 c20 -6 3 -22 -24 -22 -13 0 -24 -4 -24 -9 0 -14 42 -6 89
16 l44 21 -49 -1 c-26 0 -43 -2 -36 -5z"/>
<path d="M1430 2513 c0 -4 5 -15 10 -23 8 -13 10 -13 10 2 0 9 -4 20 -10 23
-5 3 -10 3 -10 -2z"/>
<path d="M883 2497 c4 -10 7 -22 7 -27 0 -5 14 -2 30 6 35 18 39 29 8 21 -12
-4 -29 -1 -37 6 -12 10 -14 9 -8 -6z"/>
<path d="M1037 2503 c-13 -12 -7 -23 11 -22 10 0 12 3 4 6 -6 2 -10 9 -6 14 6
10 0 12 -9 2z"/>
<path d="M1315 2500 c3 -5 8 -10 11 -10 2 0 4 5 4 10 0 6 -5 10 -11 10 -5 0
-7 -4 -4 -10z"/>
<path d="M1388 2494 c6 -12 8 -25 4 -30 -4 -5 0 -3 8 4 12 10 12 15 -4 30 -18
16 -18 16 -8 -4z"/>
<path d="M570 2489 c0 -5 5 -7 10 -4 6 3 10 8 10 11 0 2 -4 4 -10 4 -5 0 -10
-5 -10 -11z"/>
<path d="M2028 2493 c7 -3 16 -2 19 1 4 3 -2 6 -13 5 -11 0 -14 -3 -6 -6z"/>
<path d="M673 2483 c9 -2 23 -2 30 0 6 3 -1 5 -18 5 -16 0 -22 -2 -12 -5z"/>
<path d="M1220 2481 c0 -6 4 -13 10 -16 6 -3 7 1 4 9 -7 18 -14 21 -14 7z"/>
<path d="M1823 2483 c9 -2 25 -2 35 0 9 3 1 5 -18 5 -19 0 -27 -2 -17 -5z"/>
<path d="M1365 2456 c10 -14 19 -26 22 -26 7 0 -17 39 -28 46 -6 3 -3 -5 6
-20z"/>
<path d="M847 2444 c-10 -13 -14 -24 -9 -24 14 0 44 37 35 43 -4 3 -16 -6 -26
-19z"/>
<path d="M1523 2460 c2 -8 12 -16 23 -17 13 -2 15 -1 4 4 -8 3 -19 11 -23 17
-6 7 -7 6 -4 -4z"/>
<path d="M1600 2459 c0 -5 5 -7 10 -4 6 3 10 8 10 11 0 2 -4 4 -10 4 -5 0 -10
-5 -10 -11z"/>
<path d="M1722 2463 c-7 -2 -17 -14 -23 -26 -11 -21 -10 -20 15 2 14 14 26 26
26 28 0 3 0 3 -18 -4z"/>
<path d="M2168 2463 c7 -3 16 -2 19 1 4 3 -2 6 -13 5 -11 0 -14 -3 -6 -6z"/>
<path d="M693 2453 c9 -2 23 -2 30 0 6 3 -1 5 -18 5 -16 0 -22 -2 -12 -5z"/>
<path d="M903 2453 c-19 -7 -15 -33 5 -33 13 0 14 2 3 9 -11 7 -10 11 5 20 19
10 10 14 -13 4z"/>
<path d="M1473 2435 c-3 -9 -3 -19 1 -22 3 -4 6 1 6 10 0 8 6 18 13 20 9 4 9
6 -1 6 -7 1 -15 -6 -19 -14z"/>
<path d="M1890 2440 c-13 -8 -13 -10 2 -10 9 0 20 5 23 10 8 13 -5 13 -25 0z"/>
<path d="M2050 2440 c-11 -7 -11 -10 -2 -10 7 0 11 -4 8 -8 -2 -4 5 -9 17 -9
21 -2 21 -1 4 12 -18 13 -18 13 0 18 12 3 13 5 3 6 -8 0 -22 -4 -30 -9z"/>
<path d="M866 2415 c-3 -8 -14 -15 -25 -15 -10 0 -22 -7 -25 -16 -4 -10 -2
-13 7 -7 6 4 18 8 26 10 14 2 31 21 31 36 0 12 -8 8 -14 -8z"/>
<path d="M1120 2426 c0 -2 7 -6 15 -10 8 -3 15 -1 15 4 0 6 -7 10 -15 10 -8 0
-15 -2 -15 -4z"/>
<path d="M2103 2424 c10 -11 78 -13 71 -3 -3 5 -21 9 -41 9 -20 0 -33 -3 -30
-6z"/>
<path d="M2195 2420 c-3 -5 -2 -10 4 -10 5 0 13 5 16 10 3 6 2 10 -4 10 -5 0
-13 -4 -16 -10z"/>
<path d="M761 2402 c-14 -11 -13 -12 9 -6 41 11 59 23 31 21 -13 -1 -31 -7
-40 -15z"/>
<path d="M608 2403 c7 -3 16 -2 19 1 4 3 -2 6 -13 5 -11 0 -14 -3 -6 -6z"/>
<path d="M1340 2400 c0 -5 5 -10 11 -10 5 0 7 5 4 10 -3 6 -8 10 -11 10 -2 0
-4 -4 -4 -10z"/>
<path d="M1660 2399 c0 -5 5 -7 10 -4 6 3 10 8 10 11 0 2 -4 4 -10 4 -5 0 -10
-5 -10 -11z"/>
<path d="M1875 2400 c3 -5 10 -10 16 -10 5 0 9 5 9 10 0 6 -7 10 -16 10 -8 0
-12 -4 -9 -10z"/>
<path d="M2025 2400 c3 -5 14 -10 23 -10 15 0 15 2 2 10 -20 13 -33 13 -25 0z"/>
<path d="M885 2390 c-3 -5 -2 -10 4 -10 5 0 13 5 16 10 3 6 2 10 -4 10 -5 0
-13 -4 -16 -10z"/>
<path d="M1548 2388 c-7 -17 15 -19 29 -3 4 4 3 5 -4 2 -6 -4 -13 -2 -15 5 -3
8 -6 6 -10 -4z"/>
<path d="M1921 2391 c-8 -6 -9 -11 -3 -15 6 -3 14 -1 17 5 9 14 2 20 -14 10z"/>
<path d="M1165 2380 c5 -8 10 -21 11 -28 4 -23 14 -27 14 -5 0 11 -8 27 -17
34 -15 12 -16 12 -8 -1z"/>
<path d="M1213 2368 c7 -18 19 -28 32 -27 14 0 16 2 5 6 -8 4 -22 16 -32 27
-17 21 -17 21 -5 -6z"/>
<path d="M1392 2370 c0 -14 2 -19 5 -12 2 6 2 18 0 25 -3 6 -5 1 -5 -13z"/>
<path d="M1706 2374 c-26 -18 -17 -24 12 -8 13 6 20 14 15 17 -4 3 -17 -1 -27
-9z"/>
<path d="M2184 2378 c-3 -5 7 -8 23 -7 15 0 39 -3 53 -7 23 -7 24 -6 11 9 -14
18 -77 21 -87 5z"/>
<path d="M859 2373 c-2 -4 -17 -15 -34 -23 -19 -10 -30 -24 -30 -37 0 -11 -7
-29 -16 -39 -19 -22 -33 -55 -30 -69 1 -5 -5 -15 -15 -22 -9 -6 -16 -23 -16
-37 0 -14 -5 -24 -11 -23 -5 1 -12 -4 -14 -10 -3 -7 0 -13 6 -13 20 0 12 -49
-11 -71 -13 -12 -17 -19 -10 -15 15 9 16 11 -8 -58 -20 -56 -21 -95 -1 -45 6
16 7 -7 4 -71 -3 -52 -10 -98 -15 -101 -5 -3 -4 -36 2 -75 5 -38 10 -86 10
-106 0 -52 17 -95 32 -80 16 16 19 42 4 42 -7 0 -10 14 -8 40 2 22 1 48 -3 58
-4 9 -7 33 -7 52 8 252 13 323 27 357 9 20 14 42 11 49 -3 7 2 18 10 24 8 7
14 24 14 39 0 20 -2 23 -10 11 -7 -10 -10 -11 -10 -2 0 7 7 15 15 18 8 4 15
15 15 26 0 12 10 29 22 40 14 12 23 31 23 51 1 26 5 31 21 29 10 -2 16 0 11 4
-4 4 3 18 15 31 12 12 19 25 16 29 -3 3 -8 2 -9 -3z"/>
<path d="M988 2367 c-16 -6 -28 -14 -28 -18 0 -11 38 2 51 17 6 8 10 14 8 13
-2 -1 -16 -6 -31 -12z"/>
<path d="M1117 2373 c-9 -2 -15 -9 -12 -14 10 -15 32 -10 32 6 0 8 -1 14 -1
14 -1 -1 -9 -3 -19 -6z"/>
<path d="M1453 2365 c-3 -9 -3 -18 -1 -21 3 -3 8 4 11 16 6 23 -1 27 -10 5z"/>
<path d="M1645 2369 c-4 -6 -5 -12 -2 -15 2 -3 7 2 10 11 7 17 1 20 -8 4z"/>
<path d="M2106 2344 c-5 -14 -4 -15 8 -5 11 10 15 9 19 -4 4 -13 5 -12 3 1 -2
24 -22 29 -30 8z"/>
<path d="M1085 2340 c-3 -5 1 -10 10 -10 9 0 13 5 10 10 -3 6 -8 10 -10 10 -2
0 -7 -4 -10 -10z"/>
<path d="M1431 2334 c0 -11 3 -14 6 -6 3 7 2 16 -1 19 -3 4 -6 -2 -5 -13z"/>
<path d="M1935 2340 c-3 -6 1 -7 9 -4 18 7 21 14 7 14 -6 0 -13 -4 -16 -10z"/>
<path d="M1470 2332 c0 -5 7 -9 15 -9 8 0 15 4 15 9 0 4 -7 8 -15 8 -8 0 -15
-4 -15 -8z"/>
<path d="M1221 2303 c-1 -17 -4 -39 -7 -47 -5 -12 -2 -15 10 -10 9 3 14 10 11
14 -3 5 1 14 8 22 18 18 28 48 16 48 -5 0 -13 -8 -16 -17 -6 -15 -7 -15 -14 3
-6 15 -8 12 -8 -13z"/>
<path d="M2200 2326 c0 -2 7 -7 16 -10 8 -3 12 -2 9 4 -6 10 -25 14 -25 6z"/>
<path d="M720 2310 c0 -5 7 -10 15 -10 8 0 15 5 15 10 0 6 -7 10 -15 10 -8 0
-15 -4 -15 -10z"/>
<path d="M1581 2304 c0 -11 3 -14 6 -6 3 7 2 16 -1 19 -3 4 -6 -2 -5 -13z"/>
<path d="M1780 2301 c-12 -24 -13 -44 -1 -37 8 5 22 56 15 56 -2 0 -8 -9 -14
-19z"/>
<path d="M1835 2304 c-12 -12 -13 -20 -6 -27 8 -8 15 -7 24 3 7 8 8 12 3 8
-21 -16 -28 -7 -11 12 22 24 13 27 -10 4z"/>
<path d="M685 2300 c-3 -5 -2 -10 4 -10 5 0 13 5 16 10 3 6 2 10 -4 10 -5 0
-13 -4 -16 -10z"/>
<path d="M1373 2282 c2 -18 0 -35 -5 -38 -4 -3 -8 -10 -8 -15 0 -6 7 -4 15 5
13 12 14 22 6 48 l-11 33 3 -33z"/>
<path d="M1481 2303 c0 -4 4 -17 9 -28 8 -19 9 -19 9 2 1 12 -3 25 -9 28 -5 3
-10 3 -9 -2z"/>
<path d="M1675 2301 c-3 -5 -2 -12 3 -15 5 -3 9 1 9 9 0 17 -3 19 -12 6z"/>
<path d="M2126 2298 c7 -17 54 -51 61 -44 6 5 -47 55 -59 56 -4 0 -5 -6 -2
-12z"/>
<path d="M1079 2297 c-1 -4 -2 -12 -3 -17 -1 -14 -28 -30 -38 -23 -5 2 -14 0
-21 -5 -7 -5 -21 -12 -32 -16 -11 -3 -2 -3 20 0 22 3 50 12 61 19 15 9 25 10
32 3 6 -6 12 -6 16 0 3 5 -3 17 -14 27 -11 10 -21 15 -21 12z"/>
<path d="M1197 2283 c-9 -9 -9 -61 1 -66 4 -3 7 13 7 34 1 21 0 39 0 39 -1 0
-5 -3 -8 -7z"/>
<path d="M1701 2274 c0 -11 3 -14 6 -6 3 7 2 16 -1 19 -3 4 -6 -2 -5 -13z"/>
<path d="M680 2265 c0 -8 4 -15 8 -15 5 0 9 7 9 15 0 8 -4 15 -9 15 -4 0 -8
-7 -8 -15z"/>
<path d="M904 2264 c-18 -14 -18 -15 4 -4 12 6 22 13 22 15 0 8 -5 6 -26 -11z"/>
<path d="M1426 2267 c3 -10 9 -15 12 -12 3 3 0 11 -7 18 -10 9 -11 8 -5 -6z"/>
<path d="M1286 2253 c-6 -14 -5 -15 5 -6 7 7 10 15 7 18 -3 3 -9 -2 -12 -12z"/>
<path d="M2407 2254 c6 -15 23 -19 23 -5 0 5 -7 11 -14 14 -10 4 -13 1 -9 -9z"/>
<path d="M1256 2243 c-6 -14 -5 -15 5 -6 7 7 10 15 7 18 -3 3 -9 -2 -12 -12z"/>
<path d="M1636 2243 c-6 -14 -5 -15 5 -6 7 7 10 15 7 18 -3 3 -9 -2 -12 -12z"/>
<path d="M1671 2243 c-1 -12 4 -25 9 -28 12 -7 12 2 0 30 -8 19 -9 19 -9 -2z"/>
<path d="M1725 2250 c-3 -6 0 -17 8 -25 13 -13 16 -13 21 1 10 27 -15 47 -29
24z"/>
<path d="M1862 2243 c-17 -8 -34 -24 -37 -34 -4 -10 -11 -19 -17 -19 -6 0 -9
-3 -5 -6 3 -3 23 6 44 20 20 14 43 26 50 26 14 0 18 16 5 24 -4 2 -22 -2 -40
-11z"/>
<path d="M2201 2244 c0 -11 3 -14 6 -6 3 7 2 16 -1 19 -3 4 -6 -2 -5 -13z"/>
<path d="M1126 2235 c4 -8 8 -15 10 -15 2 0 4 7 4 15 0 8 -4 15 -10 15 -5 0
-7 -7 -4 -15z"/>
<path d="M2295 2226 c31 -25 46 -26 26 -2 -6 7 -22 16 -34 20 -18 4 -17 2 8
-18z"/>
<path d="M1535 2232 c-12 -8 -13 -27 -4 -37 4 -3 9 6 11 20 3 14 5 25 4 25 0
0 -6 -4 -11 -8z"/>
<path d="M2365 2220 c10 -11 20 -18 23 -16 5 6 -23 36 -34 36 -4 0 1 -9 11
-20z"/>
<path d="M1305 2210 c-3 -5 -1 -10 4 -10 6 0 11 5 11 10 0 6 -2 10 -4 10 -3 0
-8 -4 -11 -10z"/>
<path d="M1406 2205 c-3 -8 -1 -15 4 -15 6 0 10 7 10 15 0 8 -2 15 -4 15 -2 0
-6 -7 -10 -15z"/>
<path d="M665 2202 c-6 -4 -16 -18 -24 -32 -13 -25 -13 -25 15 2 25 25 32 47
9 30z"/>
<path d="M2250 2186 c14 -15 38 -34 53 -43 l28 -14 -17 26 c-9 14 -19 23 -22
21 -2 -3 -19 4 -36 16 l-31 22 25 -28z"/>
<path d="M2400 2204 c0 -2 9 -8 20 -14 11 -6 20 -7 20 -2 0 6 -9 12 -20 15
-11 3 -20 3 -20 1z"/>
<path d="M1001 2190 c-19 -5 -42 -19 -52 -31 -24 -32 -16 -36 19 -10 37 26
102 37 131 22 25 -14 27 -9 5 13 -17 17 -48 19 -103 6z"/>
<path d="M1339 2190 c-4 -27 -19 -61 -41 -89 -10 -13 -18 -31 -17 -40 0 -13 2
-13 8 2 4 10 11 18 15 17 13 -2 26 22 26 48 0 12 6 25 13 28 15 5 20 44 6 44
-5 0 -10 -4 -10 -10z"/>
<path d="M1467 2181 c-3 -13 -10 -20 -16 -16 -6 3 -11 1 -11 -4 0 -6 4 -11 9
-11 14 0 33 28 29 42 -3 7 -7 2 -11 -11z"/>
<path d="M1614 2188 c-4 -7 -3 -8 4 -4 7 4 12 1 12 -8 0 -9 5 -16 10 -16 7 0
7 6 0 20 -12 23 -16 24 -26 8z"/>
<path d="M1948 2193 c7 -3 16 -2 19 1 4 3 -2 6 -13 5 -11 0 -14 -3 -6 -6z"/>
<path d="M2070 2185 c0 -9 7 -18 15 -22 23 -8 24 0 3 20 -15 14 -18 15 -18 2z"/>
<path d="M480 2183 c-8 -3 -29 -21 -46 -39 -18 -19 -34 -34 -38 -34 -7 0 -66
-61 -66 -68 0 -3 8 2 18 11 10 10 24 17 30 17 7 0 12 5 12 10 0 6 5 10 11 10
14 0 39 25 39 39 0 6 3 11 8 11 4 1 21 12 37 25 29 24 27 30 -5 18z"/>
<path d="M820 2186 c0 -2 7 -9 15 -16 13 -11 14 -10 9 4 -5 14 -24 23 -24 12z"/>
<path d="M1295 2180 c3 -5 8 -10 11 -10 2 0 4 5 4 10 0 6 -5 10 -11 10 -5 0
-7 -4 -4 -10z"/>
<path d="M2540 2180 c0 -5 5 -10 11 -10 5 0 7 5 4 10 -3 6 -8 10 -11 10 -2 0
-4 -4 -4 -10z"/>
<path d="M656 2139 c-25 -22 -44 -45 -40 -50 3 -5 0 -9 -6 -9 -6 0 -8 -5 -5
-10 4 -6 11 -8 16 -5 12 8 11 -6 -1 -25 -6 -9 -5 -17 3 -22 7 -5 0 -10 -20
-14 -18 -4 -30 -10 -28 -14 3 -5 -1 -10 -7 -13 -7 -3 -3 -4 9 -4 12 1 20 3 18
6 -3 2 5 9 17 15 20 11 24 18 32 78 2 15 17 42 35 60 27 28 39 48 27 48 -2 0
-24 -18 -50 -41z"/>
<path d="M1140 2160 c0 -11 4 -20 9 -20 5 0 7 9 4 20 -3 11 -7 20 -9 20 -2 0
-4 -9 -4 -20z"/>
<path d="M2000 2176 c0 -2 8 -10 18 -17 15 -13 16 -12 3 4 -13 16 -21 21 -21
13z"/>
<path d="M1807 2157 c-4 -10 -7 -26 -7 -35 1 -15 2 -15 11 1 6 10 9 25 7 35
-3 16 -4 15 -11 -1z"/>
<path d="M1862 2155 c-12 -9 -20 -20 -17 -24 2 -5 -4 -16 -15 -26 -25 -22 -26
-36 -2 -29 11 4 9 -1 -7 -14 -16 -13 -22 -25 -18 -36 4 -10 11 -15 16 -11 5 3
13 0 17 -6 3 -6 1 -15 -6 -19 -11 -7 -10 -12 3 -25 16 -15 17 -15 15 7 -3 20
2 23 30 25 21 1 35 -4 39 -13 8 -21 -2 -27 -25 -15 -31 17 -35 -1 -5 -21 58
-38 107 -15 123 58 16 71 -38 130 -118 128 -26 -1 -38 2 -30 7 21 14 82 10
106 -7 12 -8 22 -12 22 -7 -1 36 -89 56 -128 28z m104 -69 c19 -19 34 -43 34
-54 0 -37 -19 -72 -45 -84 -29 -13 -47 -2 -25 15 8 7 22 25 30 40 13 26 13 30
-2 38 -11 6 -15 16 -11 26 4 10 2 14 -4 10 -6 -4 -13 2 -16 13 -5 21 -37 28
-37 9 0 -5 -4 -7 -10 -4 -20 12 -9 25 21 25 22 0 41 -10 65 -34z m-96 -7 c0
-14 -17 -10 -23 5 -4 10 -1 13 9 9 7 -3 14 -9 14 -14z m50 11 c0 -5 -4 -10
-10 -10 -5 0 -10 5 -10 10 0 6 5 10 10 10 6 0 10 -4 10 -10z m-24 -67 c-10
-11 -25 18 -18 35 4 13 8 11 15 -6 6 -12 7 -25 3 -29z m-38 12 c2 -27 -12 -34
-21 -11 -4 10 9 36 18 36 0 0 2 -11 3 -25z m87 -1 c12 -12 13 -19 4 -30 -18
-22 -29 -16 -29 16 0 34 3 36 25 14z"/>
<path d="M310 2150 c0 -5 5 -10 10 -10 6 0 10 5 10 10 0 6 -4 10 -10 10 -5 0
-10 -4 -10 -10z"/>
<path d="M1004 2150 c-11 -4 -32 -22 -46 -38 -22 -26 -24 -36 -18 -76 4 -25
15 -55 25 -66 19 -21 45 -27 45 -10 0 6 15 10 33 10 39 0 68 27 71 64 0 14 4
26 9 26 4 0 7 5 7 10 0 6 -8 10 -17 10 -15 0 -16 2 -3 10 12 7 7 12 -20 24
-36 15 -56 12 -30 -4 9 -6 10 -10 3 -10 -6 0 -15 5 -18 10 -9 15 -25 12 -25
-6 0 -8 -4 -13 -9 -10 -5 3 -13 0 -19 -7 -10 -13 -23 -72 -14 -62 3 3 16 -2
29 -10 15 -10 23 -11 23 -4 0 6 7 8 16 5 8 -3 24 -1 35 4 13 8 19 7 19 0 0 -6
-8 -13 -17 -16 -10 -4 -32 -12 -50 -20 -42 -19 -46 -18 -66 15 -27 45 -22 75
18 110 39 34 94 42 125 19 9 -7 5 -3 -8 10 -24 23 -61 27 -98 12z m85 -91 c3
-24 3 -24 -18 -5 -11 10 -18 23 -15 28 10 16 29 2 33 -23z m-41 -13 c3 -15 1
-16 -17 -4 -18 11 -23 11 -31 -2 -8 -12 -10 -11 -10 6 0 11 3 23 6 27 10 10
49 -10 52 -27z"/>
<path d="M1200 2155 c0 -5 5 -17 10 -25 5 -8 10 -10 10 -5 0 6 -5 17 -10 25
-5 8 -10 11 -10 5z"/>
<path d="M1411 2144 c0 -11 3 -14 6 -6 3 7 2 16 -1 19 -3 4 -6 -2 -5 -13z"/>
<path d="M1491 2144 c0 -11 3 -14 6 -6 3 7 2 16 -1 19 -3 4 -6 -2 -5 -13z"/>
<path d="M1572 2140 c0 -14 2 -19 5 -12 2 6 2 18 0 25 -3 6 -5 1 -5 -13z"/>
<path d="M260 2140 c0 -5 5 -10 11 -10 5 0 7 5 4 10 -3 6 -8 10 -11 10 -2 0
-4 -4 -4 -10z"/>
<path d="M2217 2130 c3 -11 8 -20 12 -20 4 0 7 9 7 20 0 11 -6 20 -12 20 -7 0
-10 -8 -7 -20z"/>
<path d="M2449 2129 c13 -11 26 -17 29 -14 8 8 -20 35 -37 35 -12 -1 -11 -5 8
-21z"/>
<path d="M1646 2105 c8 -50 14 -58 14 -19 0 16 -5 36 -11 44 -7 11 -8 4 -3
-25z"/>
<path d="M1547 2109 c4 -13 8 -18 11 -10 2 7 -1 18 -6 23 -8 8 -9 4 -5 -13z"/>
<path d="M2306 2115 c4 -8 11 -15 16 -15 6 0 5 6 -2 15 -7 8 -14 15 -16 15 -2
0 -1 -7 2 -15z"/>
<path d="M1222 2100 c-12 -19 -11 -20 8 -8 20 13 27 28 12 28 -4 0 -13 -9 -20
-20z"/>
<path d="M1520 2110 c0 -5 5 -10 11 -10 5 0 7 5 4 10 -3 6 -8 10 -11 10 -2 0
-4 -4 -4 -10z"/>
<path d="M1615 2110 c-3 -5 -1 -10 4 -10 6 0 11 5 11 10 0 6 -2 10 -4 10 -3 0
-8 -4 -11 -10z"/>
<path d="M1670 2110 c0 -21 17 -46 25 -38 4 4 0 17 -9 30 -10 14 -16 17 -16 8z"/>
<path d="M2500 2112 c0 -7 5 -12 11 -12 5 0 8 -4 5 -9 -3 -5 4 -21 16 -36 l21
-27 -34 6 c-25 5 -30 4 -19 -3 21 -15 56 -14 66 2 6 8 -3 25 -28 51 -21 22
-38 34 -38 28z"/>
<path d="M877 2066 c-50 -98 -80 -151 -91 -161 -6 -5 -20 -20 -31 -33 l-19
-23 25 9 c14 5 39 34 62 73 20 35 37 59 38 54 0 -10 24 48 39 98 13 40 3 33
-23 -17z"/>
<path d="M2145 2100 c3 -5 8 -10 11 -10 2 0 4 5 4 10 0 6 -5 10 -11 10 -5 0
-7 -4 -4 -10z"/>
<path d="M250 2090 c0 -6 7 -10 15 -10 8 0 15 2 15 4 0 2 -7 6 -15 10 -8 3
-15 1 -15 -4z"/>
<path d="M2333 2075 c0 -8 7 -15 15 -15 12 0 12 3 2 15 -7 8 -13 15 -15 15 -1
0 -2 -7 -2 -15z"/>
<path d="M2475 2070 c3 -5 10 -10 16 -10 5 0 9 5 9 10 0 6 -7 10 -16 10 -8 0
-12 -4 -9 -10z"/>
<path d="M1375 2050 c2 -27 10 -33 12 -10 1 11 -2 22 -6 24 -4 3 -7 -4 -6 -14z"/>
<path d="M915 2049 c-4 -6 -5 -12 -2 -15 2 -3 7 2 10 11 7 17 1 20 -8 4z"/>
<path d="M1700 2049 c0 -5 5 -7 10 -4 6 3 10 8 10 11 0 2 -4 4 -10 4 -5 0 -10
-5 -10 -11z"/>
<path d="M2049 2058 c-6 -25 -7 -55 -1 -63 14 -20 82 -66 82 -56 0 6 -9 16
-19 23 -11 6 -17 19 -14 27 4 12 3 13 -4 3 -7 -10 -14 -7 -29 10 -15 18 -15
20 -1 9 15 -12 17 -11 17 3 0 9 -5 16 -11 16 -5 0 -8 4 -4 9 3 5 1 12 -5 16
-5 3 -10 5 -11 3z"/>
<path d="M2228 2052 c7 -5 14 -15 16 -23 21 -120 31 -159 37 -159 10 0 2 71
-11 106 -6 14 -9 28 -9 32 1 4 0 10 -1 15 -1 4 -3 13 -4 19 0 7 -10 14 -21 16
-14 2 -16 1 -7 -6z"/>
<path d="M2310 2055 c0 -5 10 -22 23 -36 16 -20 25 -24 33 -15 8 9 7 15 -2 23
-6 7 -15 9 -18 6 -3 -4 -13 2 -21 13 -8 10 -15 15 -15 9z"/>
<path d="M392 2018 c-40 -43 -95 -87 -147 -118 -42 -25 -47 -30 -95 -85 -35
-40 0 -18 68 43 23 20 36 26 54 24 9 -2 148 130 159 150 15 29 -5 21 -39 -14z"/>
<path d="M1178 2043 c7 -3 16 -2 19 1 4 3 -2 6 -13 5 -11 0 -14 -3 -6 -6z"/>
<path d="M1496 2038 c3 -5 10 -6 15 -3 13 9 11 12 -6 12 -8 0 -12 -4 -9 -9z"/>
<path d="M1575 2040 c-3 -6 1 -7 9 -4 18 7 21 14 7 14 -6 0 -13 -4 -16 -10z"/>
<path d="M2628 2034 c13 -25 42 -50 42 -37 0 5 -12 20 -26 34 -24 21 -26 22
-16 3z"/>
<path d="M1135 2015 c4 -16 12 -33 18 -37 7 -5 8 -8 2 -8 -6 0 -11 -10 -12
-22 -2 -21 -1 -22 11 -6 7 10 16 15 19 11 16 -15 5 15 -19 52 -24 38 -25 38
-19 10z"/>
<path d="M1403 2025 c-3 -9 -3 -19 1 -22 3 -4 6 1 6 10 0 8 6 18 13 20 9 4 9
6 -1 6 -7 1 -15 -6 -19 -14z"/>
<path d="M570 2019 c0 -5 5 -7 10 -4 6 3 10 8 10 11 0 2 -4 4 -10 4 -5 0 -10
-5 -10 -11z"/>
<path d="M910 2010 c0 -8 5 -22 10 -30 9 -13 10 -13 10 0 0 8 -5 22 -10 30 -9
13 -10 13 -10 0z"/>
<path d="M1180 2008 c0 -10 6 -18 14 -18 19 0 29 17 16 25 -5 3 -10 0 -10 -7
0 -9 -3 -9 -10 2 -8 13 -10 12 -10 -2z"/>
<path d="M1594 2009 c-3 -5 6 -9 20 -9 31 0 34 6 6 13 -11 3 -23 1 -26 -4z"/>
<path d="M2326 1970 c23 -43 44 -64 44 -44 0 8 -60 94 -66 94 -3 0 7 -22 22
-50z"/>
<path d="M1450 2001 c0 -6 4 -13 10 -16 6 -3 7 1 4 9 -7 18 -14 21 -14 7z"/>
<path d="M1790 2000 c0 -5 5 -10 11 -10 5 0 7 5 4 10 -3 6 -8 10 -11 10 -2 0
-4 -4 -4 -10z"/>
<path d="M1665 1990 c-3 -5 -16 -10 -27 -10 -12 0 -19 -2 -16 -5 3 -3 24 -3
47 1 29 5 38 10 29 15 -17 11 -26 11 -33 -1z"/>
<path d="M1744 1989 c-6 -11 11 -36 35 -49 12 -6 16 -3 17 15 2 25 -40 53 -52
34z m21 -9 c3 -5 1 -10 -4 -10 -6 0 -11 5 -11 10 0 6 2 10 4 10 3 0 8 -4 11
-10z"/>
<path d="M2375 1991 c-3 -5 -1 -12 5 -16 5 -3 10 1 10 9 0 18 -6 21 -15 7z"/>
<path d="M2525 1980 c10 -12 25 -18 32 -15 8 2 12 1 10 -3 -3 -4 0 -16 4 -27
9 -19 9 -19 5 2 -2 12 1 24 8 26 6 2 -3 11 -21 20 -44 23 -60 22 -38 -3z"/>
<path d="M2016 1973 c-6 -14 -5 -15 5 -6 7 7 10 15 7 18 -3 3 -9 -2 -12 -12z"/>
<path d="M2675 1980 c-3 -5 -1 -10 4 -10 6 0 11 5 11 10 0 6 -2 10 -4 10 -3 0
-8 -4 -11 -10z"/>
<path d="M2736 1981 c-4 -6 1 -14 11 -18 10 -3 22 -12 26 -20 9 -15 37 -18 37
-3 0 6 -12 16 -27 23 -16 6 -31 16 -34 20 -4 5 -10 4 -13 -2z"/>
<path d="M98 1951 c-26 -14 -49 -34 -51 -43 -7 -24 5 -23 23 2 8 11 19 20 25
20 13 1 61 37 55 42 -3 2 -26 -7 -52 -21z"/>
<path d="M410 1955 c0 -8 2 -15 4 -15 2 0 6 7 10 15 3 8 1 15 -4 15 -6 0 -10
-7 -10 -15z"/>
<path d="M566 1946 c7 -19 20 -21 30 -3 4 6 4 9 -1 5 -4 -4 -14 -3 -22 4 -11
8 -12 7 -7 -6z"/>
<path d="M1410 1950 c0 -5 5 -10 11 -10 5 0 7 5 4 10 -3 6 -8 10 -11 10 -2 0
-4 -4 -4 -10z"/>
<path d="M1548 1953 c7 -3 16 -2 19 1 4 3 -2 6 -13 5 -11 0 -14 -3 -6 -6z"/>
<path d="M864 1935 c-10 -8 -14 -15 -8 -15 6 0 17 7 24 15 16 19 9 19 -16 0z"/>
<path d="M1210 1939 c0 -5 5 -7 10 -4 6 3 10 8 10 11 0 2 -4 4 -10 4 -5 0 -10
-5 -10 -11z"/>
<path d="M1014 1929 c-3 -6 -16 -9 -29 -7 -12 3 -22 0 -22 -7 0 -16 39 -12 67
8 18 13 20 17 8 17 -9 0 -20 -5 -24 -11z"/>
<path d="M1100 1925 c-10 -12 -10 -15 4 -15 9 0 16 7 16 15 0 8 -2 15 -4 15
-2 0 -9 -7 -16 -15z"/>
<path d="M2040 1930 c0 -5 7 -7 15 -4 8 4 15 8 15 10 0 2 -7 4 -15 4 -8 0 -15
-4 -15 -10z"/>
<path d="M2820 1930 c0 -5 5 -10 11 -10 5 0 7 5 4 10 -3 6 -8 10 -11 10 -2 0
-4 -4 -4 -10z"/>
<path d="M370 1912 c0 -5 -11 -15 -25 -22 -14 -7 -25 -20 -25 -27 0 -8 -4 -11
-10 -8 -5 3 -10 1 -10 -4 0 -6 -3 -10 -7 -9 -12 2 -66 -25 -87 -44 -35 -32 6
-21 44 12 47 40 50 29 6 -24 -20 -24 -36 -49 -36 -54 0 -6 -5 -12 -12 -14 -8
-3 -8 -7 -2 -11 6 -3 33 24 59 61 27 37 67 83 88 103 26 23 36 39 28 43 -6 4
-11 3 -11 -2z"/>
<path d="M477 1913 c-4 -3 -7 -11 -7 -17 0 -6 5 -5 12 2 6 6 9 14 7 17 -3 3
-9 2 -12 -2z"/>
<path d="M1728 1913 c7 -3 16 -2 19 1 4 3 -2 6 -13 5 -11 0 -14 -3 -6 -6z"/>
<path d="M2617 1902 c3 -12 9 -25 14 -28 14 -8 11 10 -6 32 -13 18 -14 18 -8
-4z"/>
<path d="M880 1895 c-11 -13 -10 -14 4 -9 9 3 16 10 16 15 0 13 -6 11 -20 -6z"/>
<path d="M1530 1906 c0 -2 9 -6 20 -9 11 -3 18 -1 14 4 -5 9 -34 13 -34 5z"/>
<path d="M1800 1906 c0 -2 8 -10 18 -17 15 -13 16 -12 3 4 -13 16 -21 21 -21
13z"/>
<path d="M1881 1906 c12 -13 64 -23 84 -15 17 6 15 8 -10 8 -16 1 -41 4 -55 8
-14 3 -22 3 -19 -1z"/>
<path d="M1114 1884 c-18 -14 -18 -15 4 -4 12 6 22 13 22 15 0 8 -5 6 -26 -11z"/>
<path d="M1690 1896 c0 -2 7 -9 15 -16 9 -7 15 -8 15 -2 0 5 -7 12 -15 16 -8
3 -15 4 -15 2z"/>
<path d="M1990 1890 c0 -5 5 -10 11 -10 5 0 7 5 4 10 -3 6 -8 10 -11 10 -2 0
-4 -4 -4 -10z"/>
<path d="M2333 1880 c4 -14 7 -28 7 -31 0 -4 7 -9 15 -13 13 -5 13 -1 -1 27
-22 42 -28 48 -21 17z"/>
<path d="M959 1871 c-13 -11 -21 -22 -18 -25 3 -3 16 5 29 19 28 30 22 33 -11
6z"/>
<path d="M2130 1882 c0 -4 10 -13 23 -21 22 -14 22 -14 3 8 -20 22 -26 25 -26
13z"/>
<path d="M2405 1880 c3 -5 8 -10 11 -10 2 0 4 5 4 10 0 6 -5 10 -11 10 -5 0
-7 -4 -4 -10z"/>
<path d="M31 1864 c0 -11 3 -14 6 -6 3 7 2 16 -1 19 -3 4 -6 -2 -5 -13z"/>
<path d="M390 1865 c-14 -16 -10 -18 14 -9 9 3 16 10 16 15 0 14 -16 11 -30
-6z"/>
<path d="M1231 1860 c-14 -12 -18 -20 -10 -20 8 0 20 9 27 20 15 25 13 25 -17
0z"/>
<path d="M1417 1864 c6 -15 23 -19 23 -5 0 5 -7 11 -14 14 -10 4 -13 1 -9 -9z"/>
<path d="M1660 1870 c0 -5 5 -10 11 -10 5 0 7 5 4 10 -3 6 -8 10 -11 10 -2 0
-4 -4 -4 -10z"/>
<path d="M2500 1871 c0 -5 7 -15 17 -22 15 -13 15 -12 4 9 -12 23 -21 28 -21
13z"/>
<path d="M2805 1860 c-4 -6 -1 -10 5 -10 6 0 8 -4 5 -10 -3 -5 2 -10 12 -10
15 0 16 -2 3 -10 -9 -6 -10 -10 -3 -10 6 0 14 -8 16 -17 3 -11 5 -7 6 10 1 28
-34 73 -44 57z"/>
<path d="M800 1849 c-13 -9 -13 -10 2 -6 9 3 19 1 22 -6 2 -7 5 -4 5 6 1 20
-7 21 -29 6z"/>
<path d="M2286 1797 c3 -45 1 -74 -7 -83 -9 -11 -8 -14 6 -14 18 0 18 -27 0
-75 -5 -16 -5 -17 4 -5 7 11 9 -15 7 -90 -2 -58 -5 -109 -6 -115 -4 -18 0 -35
9 -35 4 0 9 24 10 53 2 57 7 90 17 125 3 12 2 22 -2 22 -5 0 -10 26 -11 58 -5
96 -15 185 -24 207 -6 13 -7 -5 -3 -48z"/>
<path d="M980 1839 c0 -5 5 -7 10 -4 6 3 10 8 10 11 0 2 -4 4 -10 4 -5 0 -10
-5 -10 -11z"/>
<path d="M1085 1839 c-11 -16 -1 -19 13 -3 7 8 8 14 3 14 -5 0 -13 -5 -16 -11z"/>
<path d="M1590 1846 c0 -2 7 -9 15 -16 13 -11 14 -10 9 4 -5 14 -24 23 -24 12z"/>
<path d="M1910 1841 c0 -6 4 -13 10 -16 6 -3 7 1 4 9 -7 18 -14 21 -14 7z"/>
<path d="M2750 1831 c5 -11 15 -23 21 -27 6 -3 3 5 -6 20 -20 30 -30 35 -15 7z"/>
<path d="M341 1804 c-17 -20 -30 -41 -28 -47 1 -5 18 9 36 32 42 52 36 64 -8
15z"/>
<path d="M615 1830 c3 -5 8 -10 11 -10 2 0 4 5 4 10 0 6 -5 10 -11 10 -5 0 -7
-4 -4 -10z"/>
<path d="M885 1830 c-3 -5 -1 -10 4 -10 6 0 11 5 11 10 0 6 -2 10 -4 10 -3 0
-8 -4 -11 -10z"/>
<path d="M1763 1810 c19 -16 38 -30 43 -30 4 0 -8 14 -26 30 -18 17 -37 30
-42 30 -5 0 7 -13 25 -30z"/>
<path d="M1190 1820 c0 -5 5 -10 10 -10 6 0 10 5 10 10 0 6 -4 10 -10 10 -5 0
-10 -4 -10 -10z"/>
<path d="M2397 1819 c7 -7 15 -10 18 -7 3 3 -2 9 -12 12 -14 6 -15 5 -6 -5z"/>
<path d="M839 1811 c11 -7 10 -10 -5 -14 -13 -3 -11 -5 9 -6 21 -1 27 -6 27
-23 0 -21 0 -21 14 -3 13 18 12 22 -12 37 -15 10 -31 18 -37 18 -5 0 -4 -4 4
-9z"/>
<path d="M921 1804 c0 -11 3 -14 6 -6 3 7 2 16 -1 19 -3 4 -6 -2 -5 -13z"/>
<path d="M1290 1809 c0 -3 14 -6 30 -7 17 0 30 4 30 9 0 5 -13 8 -30 7 -16 -1
-30 -5 -30 -9z"/>
<path d="M1380 1810 c-20 -6 -17 -7 18 -7 23 1 42 5 42 9 0 10 -26 9 -60 -2z"/>
<path d="M938 1789 c-10 -10 -13 -19 -7 -19 6 0 9 -7 6 -14 -4 -10 -1 -13 7
-10 7 3 13 18 14 34 0 17 0 30 -1 29 -1 0 -10 -9 -19 -20z"/>
<path d="M1065 1800 c-3 -5 -1 -10 4 -10 6 0 11 5 11 10 0 6 -2 10 -4 10 -3 0
-8 -4 -11 -10z"/>
<path d="M1236 1782 c-40 -30 -76 -78 -76 -102 0 -8 7 -2 15 14 17 33 73 90
95 98 8 3 12 8 9 12 -3 3 -22 -6 -43 -22z"/>
<path d="M1458 1803 c7 -3 16 -2 19 1 4 3 -2 6 -13 5 -11 0 -14 -3 -6 -6z"/>
<path d="M1740 1802 c0 -12 19 -26 26 -19 2 2 -2 10 -11 17 -9 8 -15 8 -15 2z"/>
<path d="M1970 1800 c0 -5 5 -10 11 -10 5 0 7 5 4 10 -3 6 -8 10 -11 10 -2 0
-4 -4 -4 -10z"/>
<path d="M2575 1800 c3 -5 8 -10 11 -10 2 0 4 5 4 10 0 6 -5 10 -11 10 -5 0
-7 -4 -4 -10z"/>
<path d="M1560 1780 c44 -36 100 -93 100 -102 0 -4 5 -8 11 -8 30 0 -59 98
-106 118 l-30 12 25 -20z"/>
<path d="M1887 1779 c7 -7 15 -10 18 -7 3 3 -2 9 -12 12 -14 6 -15 5 -6 -5z"/>
<path d="M1049 1758 c-12 -23 -12 -23 10 -4 23 21 26 26 11 26 -5 0 -15 -10
-21 -22z"/>
<path d="M2361 1764 c0 -11 3 -14 6 -6 3 7 2 16 -1 19 -3 4 -6 -2 -5 -13z"/>
<path d="M2586 1767 c3 -10 9 -15 12 -12 3 3 0 11 -7 18 -10 9 -11 8 -5 -6z"/>
<path d="M2820 1770 c0 -6 7 -10 15 -10 8 0 15 2 15 4 0 2 -7 6 -15 10 -8 3
-15 1 -15 -4z"/>
<path d="M1660 1759 c0 -5 5 -7 10 -4 6 3 10 8 10 11 0 2 -4 4 -10 4 -5 0 -10
-5 -10 -11z"/>
<path d="M1761 1767 c2 -1 15 -11 28 -22 l24 -20 -12 23 c-6 12 -19 22 -28 22
-9 0 -14 -1 -12 -3z"/>
<path d="M1815 1760 c3 -5 8 -10 11 -10 2 0 4 5 4 10 0 6 -5 10 -11 10 -5 0
-7 -4 -4 -10z"/>
<path d="M1076 1745 c-11 -8 -15 -15 -9 -15 6 0 16 7 23 15 16 19 11 19 -14 0z"/>
<path d="M1950 1748 c0 -4 4 -8 9 -8 6 0 12 4 15 8 3 5 -1 9 -9 9 -8 0 -15 -4
-15 -9z"/>
<path d="M873 1742 c-15 -5 -20 -11 -14 -20 6 -9 12 -8 26 8 10 11 16 20 14
19 -2 -1 -14 -4 -26 -7z"/>
<path d="M1920 1735 c6 -8 9 -19 5 -25 -9 -14 13 -40 33 -40 12 0 11 4 -6 16
-12 8 -20 19 -17 24 7 12 -5 40 -17 40 -6 0 -5 -6 2 -15z"/>
<path d="M2006 1742 c-3 -5 1 -9 9 -9 8 0 15 4 15 9 0 4 -4 8 -9 8 -6 0 -12
-4 -15 -8z"/>
<path d="M946 1705 c-16 -19 -38 -36 -50 -38 -17 -4 -16 -5 5 -6 20 -1 34 9
54 35 35 46 28 53 -9 9z"/>
<path d="M1819 1722 c-13 -14 -14 -21 -2 -42 7 -15 13 -19 13 -9 0 8 -5 20
-12 27 -16 16 4 16 22 0 11 -10 11 -9 0 6 -14 18 -13 19 4 13 16 -6 17 -5 6 8
-7 8 -13 15 -14 14 0 0 -8 -8 -17 -17z"/>
<path d="M2781 1724 c0 -11 3 -14 6 -6 3 7 2 16 -1 19 -3 4 -6 -2 -5 -13z"/>
<path d="M346 1714 c-4 -9 -4 -19 -1 -22 2 -3 7 3 11 12 4 9 4 19 1 22 -2 3
-7 -3 -11 -12z"/>
<path d="M1704 1716 c11 -9 24 -16 30 -16 12 0 7 5 -24 19 -24 11 -24 11 -6
-3z"/>
<path d="M885 1710 c-3 -5 -2 -10 4 -10 5 0 13 5 16 10 3 6 2 10 -4 10 -5 0
-13 -4 -16 -10z"/>
<path d="M90 1700 c0 -5 5 -10 11 -10 5 0 7 5 4 10 -3 6 -8 10 -11 10 -2 0 -4
-4 -4 -10z"/>
<path d="M626 1685 c8 -37 14 -45 14 -19 0 10 -5 26 -10 34 -8 11 -9 7 -4 -15z"/>
<path d="M2058 1703 c7 -3 16 -2 19 1 4 3 -2 6 -13 5 -11 0 -14 -3 -6 -6z"/>
<path d="M146 1683 c-6 -14 -5 -15 5 -6 7 7 10 15 7 18 -3 3 -9 -2 -12 -12z"/>
<path d="M248 1680 c-9 -10 -14 -21 -10 -24 6 -7 42 23 42 36 0 13 -14 8 -32
-12z"/>
<path d="M1111 1684 c-12 -14 -11 -16 4 -12 10 1 20 9 23 16 5 17 -10 15 -27
-4z"/>
<path d="M1695 1680 c4 -6 11 -8 16 -5 14 9 11 15 -7 15 -8 0 -12 -5 -9 -10z"/>
<path d="M2774 1674 c3 -9 6 -22 6 -30 0 -21 16 -9 23 16 3 11 1 18 -4 14 -5
-3 -9 0 -9 5 0 6 -5 11 -11 11 -6 0 -8 -7 -5 -16z"/>
<path d="M89 1660 c-3 -14 -2 -36 1 -50 l6 -25 6 25 c3 14 9 34 13 44 6 13 5
17 -2 13 -6 -4 -13 -1 -15 5 -3 7 -7 2 -9 -12z"/>
<path d="M500 1661 c0 -25 6 -27 13 -6 4 8 2 17 -3 20 -6 4 -10 -3 -10 -14z"/>
<path d="M2015 1670 c3 -5 8 -10 11 -10 2 0 4 5 4 10 0 6 -5 10 -11 10 -5 0
-7 -4 -4 -10z"/>
<path d="M305 1650 c3 -5 8 -10 11 -10 2 0 4 5 4 10 0 6 -5 10 -11 10 -5 0 -7
-4 -4 -10z"/>
<path d="M1015 1649 c-4 -6 -5 -12 -2 -15 2 -3 7 2 10 11 7 17 1 20 -8 4z"/>
<path d="M1271 1646 c-16 -19 -4 -39 18 -32 9 4 1 -8 -18 -25 -27 -25 -40 -30
-67 -27 -30 3 -32 2 -20 -10 19 -19 89 -7 123 22 23 20 25 26 16 52 -11 33
-34 42 -52 20z"/>
<path d="M1399 1659 c0 -2 -3 -76 -6 -164 -3 -116 -2 -157 6 -149 11 10 17
301 7 312 -4 3 -6 3 -7 1z"/>
<path d="M1846 1647 c3 -10 9 -15 12 -12 3 3 0 11 -7 18 -10 9 -11 8 -5 -6z"/>
<path d="M1965 1640 c21 -24 26 -25 19 -6 -3 8 -13 17 -22 21 -13 5 -13 2 3
-15z"/>
<path d="M1490 1631 c-17 -33 -11 -56 20 -74 17 -10 30 -16 30 -12 0 3 12 -1
28 -8 20 -11 35 -12 62 -4 l35 11 -48 6 c-30 4 -56 14 -70 29 -21 21 -21 23
-4 32 14 8 16 14 6 25 -16 20 -46 17 -59 -5z"/>
<path d="M1730 1640 c0 -5 5 -10 11 -10 5 0 7 5 4 10 -3 6 -8 10 -11 10 -2 0
-4 -4 -4 -10z"/>
<path d="M111 1590 c-18 -25 -20 -37 -14 -68 8 -44 9 -51 11 -74 1 -10 6 -18
11 -18 6 0 8 27 5 62 -3 36 0 73 7 90 16 40 7 44 -20 8z"/>
<path d="M749 1603 c-13 -15 -12 -15 9 -4 23 12 28 21 13 21 -5 0 -15 -7 -22
-17z"/>
<path d="M1835 1610 c3 -5 8 -10 11 -10 2 0 4 5 4 10 0 6 -5 10 -11 10 -5 0
-7 -4 -4 -10z"/>
<path d="M2656 1607 c3 -10 9 -15 12 -12 3 3 0 11 -7 18 -10 9 -11 8 -5 -6z"/>
<path d="M2767 1614 c-3 -3 -4 -11 -2 -17 11 -35 13 -97 4 -97 -8 0 -9 -12 -3
-37 11 -53 13 -123 3 -118 -19 12 -16 -14 3 -31 19 -17 21 -17 15 -1 -4 9 -3
17 1 17 4 0 7 65 7 145 0 136 -5 162 -28 139z"/>
<path d="M176 1593 c-6 -14 -5 -15 5 -6 7 7 10 15 7 18 -3 3 -9 -2 -12 -12z"/>
<path d="M1717 1599 c7 -7 15 -10 18 -7 3 3 -2 9 -12 12 -14 6 -15 5 -6 -5z"/>
<path d="M1935 1586 c10 -14 19 -26 22 -26 7 0 -17 39 -28 46 -6 3 -3 -5 6
-20z"/>
<path d="M485 1590 c-3 -5 -1 -10 4 -10 6 0 11 5 11 10 0 6 -2 10 -4 10 -3 0
-8 -4 -11 -10z"/>
<path d="M846 1591 c-4 -7 -5 -15 -2 -18 9 -9 19 4 14 18 -4 11 -6 11 -12 0z"/>
<path d="M1020 1578 c0 -19 2 -20 10 -8 13 19 13 30 0 30 -5 0 -10 -10 -10
-22z"/>
<path d="M1885 1589 c-10 -15 3 -25 16 -12 7 7 7 13 1 17 -6 3 -14 1 -17 -5z"/>
<path d="M2105 1590 c3 -5 8 -10 11 -10 2 0 4 5 4 10 0 6 -5 10 -11 10 -5 0
-7 -4 -4 -10z"/>
<path d="M197 1558 c-9 -31 -2 -33 11 -3 6 14 8 25 3 25 -5 0 -11 -10 -14 -22z"/>
<path d="M770 1570 c-13 -8 -12 -10 3 -10 9 0 17 5 17 10 0 12 -1 12 -20 0z"/>
<path d="M922 1560 c-12 -12 -22 -25 -22 -30 0 -5 12 2 26 17 30 30 27 42 -4
13z"/>
<path d="M1773 1549 c-2 -23 3 -25 10 -4 4 8 3 16 -1 19 -4 3 -9 -4 -9 -15z"/>
<path d="M1900 1549 c0 -5 5 -7 10 -4 6 3 10 8 10 11 0 2 -4 4 -10 4 -5 0 -10
-5 -10 -11z"/>
<path d="M2140 1550 c0 -5 5 -10 10 -10 6 0 10 5 10 10 0 6 -4 10 -10 10 -5 0
-10 -4 -10 -10z"/>
<path d="M2420 1535 c0 -14 4 -25 9 -25 4 0 6 11 3 25 -2 14 -6 25 -8 25 -2 0
-4 -11 -4 -25z"/>
<path d="M2517 1539 c4 -13 8 -18 11 -10 2 7 -1 18 -6 23 -8 8 -9 4 -5 -13z"/>
<path d="M641 1524 c0 -11 3 -14 6 -6 3 7 2 16 -1 19 -3 4 -6 -2 -5 -13z"/>
<path d="M1345 1530 c-3 -5 1 -10 9 -10 9 0 16 5 16 10 0 6 -4 10 -9 10 -6 0
-13 -4 -16 -10z"/>
<path d="M2040 1530 c0 -5 5 -10 11 -10 5 0 7 5 4 10 -3 6 -8 10 -11 10 -2 0
-4 -4 -4 -10z"/>
<path d="M2093 1516 c9 -7 17 -18 17 -24 0 -6 4 -14 10 -17 6 -4 7 1 3 12 -9
26 -24 43 -37 43 -6 0 -3 -7 7 -14z"/>
<path d="M1872 1504 c9 -9 21 -15 27 -13 6 2 -2 10 -17 17 -25 11 -25 11 -10
-4z"/>
<path d="M237 1503 c-4 -3 -7 -14 -7 -24 0 -9 -5 -20 -10 -22 -6 -3 -5 -4 2
-3 6 1 15 14 19 29 8 28 7 31 -4 20z"/>
<path d="M1189 1494 c-13 -16 -12 -17 5 -11 16 6 17 4 11 -20 -5 -23 -4 -25 9
-14 19 16 20 22 3 45 -13 17 -14 17 -28 0z"/>
<path d="M1738 1484 c12 -9 22 -22 22 -29 0 -7 7 -18 15 -25 13 -11 14 -9 1
15 -8 16 -13 32 -10 37 3 4 1 8 -5 8 -5 0 -18 3 -28 6 -14 4 -13 1 5 -12z"/>
<path d="M2155 1490 c3 -5 8 -10 11 -10 2 0 4 5 4 10 0 6 -5 10 -11 10 -5 0
-7 -4 -4 -10z"/>
<path d="M2420 1480 c0 -11 5 -20 11 -20 5 0 7 5 3 12 -5 8 -2 9 9 5 24 -9 21
0 -3 13 -17 9 -20 8 -20 -10z"/>
<path d="M1629 1482 c11 -8 11 -10 0 -15 -10 -4 -8 -6 4 -6 21 -1 18 21 -4 27
-12 3 -12 2 0 -6z"/>
<path d="M1821 1474 c0 -11 3 -14 6 -6 3 7 2 16 -1 19 -3 4 -6 -2 -5 -13z"/>
<path d="M1920 1486 c0 -2 9 -6 20 -9 11 -3 18 -1 14 4 -5 9 -34 13 -34 5z"/>
<path d="M2230 1480 c0 -5 5 -10 11 -10 5 0 7 5 4 10 -3 6 -8 10 -11 10 -2 0
-4 -4 -4 -10z"/>
<path d="M1509 1463 c-13 -16 -12 -17 4 -4 9 7 17 15 17 17 0 8 -8 3 -21 -13z"/>
<path d="M1891 1476 c2 -2 15 -9 29 -15 24 -11 24 -11 6 3 -16 13 -49 24 -35
12z"/>
<path d="M695 1458 c-11 -31 0 -153 15 -165 16 -13 30 -8 30 10 0 7 -4 6 -10
-3 -10 -16 -11 -14 -16 38 -2 25 1 32 11 28 7 -2 16 2 19 10 11 28 6 38 -8 19
-13 -18 -14 -18 -21 4 -4 14 -2 27 5 35 10 8 12 7 7 -7 -4 -11 -3 -16 3 -12 6
3 10 17 10 31 0 17 -5 24 -20 24 -11 0 -23 -6 -25 -12z"/>
<path d="M1579 1465 c-1 -3 -2 -9 -3 -13 -2 -15 -39 -47 -54 -47 -9 0 -17 -5
-19 -11 -2 -7 6 -11 22 -10 14 0 25 4 25 9 0 4 7 7 15 7 8 0 17 11 21 25 3 14
10 25 16 25 5 0 6 5 3 10 -6 10 -24 14 -26 5z"/>
<path d="M951 1439 c-6 -11 -18 -19 -26 -19 -8 0 -15 -5 -15 -10 0 -12 35 3
45 20 3 5 12 7 19 4 8 -3 17 -1 20 4 3 5 -2 12 -13 15 -11 2 -23 -3 -30 -14z"/>
<path d="M1903 1439 c21 -12 22 -29 2 -29 -8 0 -15 5 -15 12 0 6 -3 8 -7 4 -5
-4 1 -14 11 -22 13 -9 15 -14 6 -14 -8 0 5 -14 28 -31 25 -18 41 -38 40 -47
-2 -9 3 -17 10 -18 6 -1 15 -3 20 -4 4 -1 10 -2 15 -1 4 0 7 -5 7 -12 0 -8 11
-19 25 -25 20 -9 23 -9 18 4 -3 8 0 21 7 29 9 10 9 15 1 15 -6 0 -11 7 -11 16
0 9 -5 12 -12 8 -6 -4 -8 -3 -4 4 7 12 -52 72 -72 72 -7 0 -15 7 -18 15 -4 8
-12 15 -20 15 -8 0 -14 5 -14 10 0 6 -8 10 -17 10 -17 -1 -17 -1 0 -11z m69
-49 c8 0 21 -11 28 -25 7 -13 18 -21 23 -18 6 4 8 0 4 -11 -4 -10 1 -24 12
-35 12 -12 16 -23 10 -32 -8 -13 -13 -6 -10 14 0 4 -3 8 -9 8 -11 2 -25 5 -37
9 -5 1 -12 2 -16 1 -5 -1 -5 3 -2 9 4 7 -3 22 -16 36 -12 13 -19 24 -14 24 4
0 1 8 -8 18 -10 10 -14 22 -10 26 4 4 13 0 19 -8 6 -9 18 -16 26 -16z m-37
-10 c3 -5 2 -10 -4 -10 -5 0 -13 5 -16 10 -3 6 -2 10 4 10 5 0 13 -4 16 -10z"/>
<path d="M1981 1343 c7 -10 15 -20 16 -22 2 -2 3 3 3 11 0 9 -7 19 -16 22 -15
6 -15 4 -3 -11z"/>
<path d="M1965 1441 c-3 -5 -1 -12 5 -16 5 -3 10 1 10 9 0 18 -6 21 -15 7z"/>
<path d="M799 1423 c-13 -16 -12 -17 4 -4 9 7 17 15 17 17 0 8 -8 3 -21 -13z"/>
<path d="M1460 1423 c0 -12 -10 -29 -22 -39 -20 -14 -20 -15 -3 -9 11 4 28 8
38 9 21 0 20 -3 2 32 -13 26 -15 27 -15 7z"/>
<path d="M2040 1430 c0 -6 7 -10 15 -10 8 0 15 2 15 4 0 2 -7 6 -15 10 -8 3
-15 1 -15 -4z"/>
<path d="M2201 1424 c0 -11 3 -14 6 -6 3 7 2 16 -1 19 -3 4 -6 -2 -5 -13z"/>
<path d="M505 1419 c-4 -6 -5 -12 -2 -15 2 -3 7 2 10 11 7 17 1 20 -8 4z"/>
<path d="M1247 1424 c-8 -8 1 -24 14 -24 5 0 9 7 9 15 0 15 -12 20 -23 9z"/>
<path d="M2129 1426 c-2 -2 -3 -39 -1 -81 3 -60 6 -74 16 -66 10 8 11 25 3 68
-5 32 -9 64 -10 71 0 13 -1 14 -8 8z"/>
<path d="M115 1388 c4 -18 11 -34 16 -36 5 -2 9 -10 9 -17 0 -8 5 -17 10 -20
6 -4 1 16 -9 43 -11 28 -17 53 -14 56 4 3 1 6 -6 6 -9 0 -11 -9 -6 -32z"/>
<path d="M948 1398 c-13 -13 -28 -22 -35 -20 -12 3 -26 -14 -29 -35 -1 -6 6
-11 16 -10 10 1 17 4 14 8 -2 4 15 23 38 43 24 20 37 36 31 36 -7 0 -23 -10
-35 -22z m-33 -38 c-3 -5 -11 -10 -16 -10 -6 0 -7 5 -4 10 3 6 11 10 16 10 6
0 7 -4 4 -10z"/>
<path d="M1284 1395 c1 -19 3 -22 11 -12 7 9 19 11 37 6 16 -4 30 -3 34 2 3 5
-2 9 -10 9 -9 0 -16 5 -16 11 0 8 -4 8 -14 0 -10 -8 -16 -9 -21 -1 -11 18 -23
11 -21 -15z"/>
<path d="M1847 1407 c-3 -9 -2 -19 4 -23 15 -9 18 -2 9 20 -6 17 -7 18 -13 3z"/>
<path d="M280 1400 c-12 -8 -10 -10 8 -10 13 0 20 4 17 10 -7 12 -6 12 -25 0z"/>
<path d="M2028 1390 c12 -5 27 -21 32 -35 5 -14 15 -25 22 -24 10 0 10 2 0 6
-6 2 -10 9 -7 13 7 12 -35 50 -54 49 -10 0 -7 -4 7 -9z"/>
<path d="M2440 1390 c0 -5 5 -10 11 -10 5 0 7 5 4 10 -3 6 -8 10 -11 10 -2 0
-4 -4 -4 -10z"/>
<path d="M832 1378 c-7 -7 -12 -21 -12 -32 0 -16 -3 -17 -9 -8 -7 11 -9 11
-14 -1 -4 -11 0 -15 14 -12 30 6 37 13 37 40 0 29 0 29 -16 13z"/>
<path d="M1230 1369 c0 -5 5 -7 10 -4 6 3 10 8 10 11 0 2 -4 4 -10 4 -5 0 -10
-5 -10 -11z"/>
<path d="M944 1355 c-18 -13 -18 -14 4 -8 12 3 25 9 28 14 8 14 -10 11 -32 -6z"/>
<path d="M1796 1357 c3 -10 9 -15 12 -12 3 3 0 11 -7 18 -10 9 -11 8 -5 -6z"/>
<path d="M1871 1358 c-1 -12 6 -18 19 -18 22 0 27 15 8 26 -7 4 -8 3 -4 -4 4
-7 3 -12 -3 -12 -5 0 -12 6 -14 13 -3 7 -6 5 -6 -5z"/>
<path d="M741 1346 c-7 -8 -8 -17 -3 -20 6 -3 12 3 15 14 6 24 4 25 -12 6z"/>
<path d="M1441 1344 c0 -11 3 -14 6 -6 3 7 2 16 -1 19 -3 4 -6 -2 -5 -13z"/>
<path d="M1650 1350 c0 -5 5 -10 11 -10 5 0 7 5 4 10 -3 6 -8 10 -11 10 -2 0
-4 -4 -4 -10z"/>
<path d="M1766 1347 c3 -10 9 -15 12 -12 3 3 0 11 -7 18 -10 9 -11 8 -5 -6z"/>
<path d="M571 1340 c-11 -70 -11 -75 0 -57 5 10 8 30 6 45 -2 15 -5 20 -6 12z"/>
<path d="M766 1335 c-9 -26 -7 -32 5 -12 6 10 9 21 6 23 -2 3 -7 -2 -11 -11z"/>
<path d="M1485 1340 c-3 -5 -1 -10 4 -10 6 0 11 5 11 10 0 6 -2 10 -4 10 -3 0
-8 -4 -11 -10z"/>
<path d="M960 1324 c0 -8 5 -12 10 -9 6 3 10 10 10 16 0 5 -4 9 -10 9 -5 0
-10 -7 -10 -16z"/>
<path d="M1240 1329 c0 -5 5 -7 10 -4 6 3 10 8 10 11 0 2 -4 4 -10 4 -5 0 -10
-5 -10 -11z"/>
<path d="M1466 1317 c3 -10 9 -15 12 -12 3 3 0 11 -7 18 -10 9 -11 8 -5 -6z"/>
<path d="M1670 1321 c0 -6 4 -13 10 -16 6 -3 7 1 4 9 -7 18 -14 21 -14 7z"/>
<path d="M1710 1321 c0 -6 4 -13 10 -16 6 -3 7 1 4 9 -7 18 -14 21 -14 7z"/>
<path d="M1861 1321 c-8 -5 -9 -11 -3 -15 5 -3 12 1 16 9 6 17 6 18 -13 6z"/>
<path d="M1927 1319 c7 -7 15 -10 18 -7 3 3 -2 9 -12 12 -14 6 -15 5 -6 -5z"/>
<path d="M821 1291 c-12 -16 -20 -33 -19 -38 1 -4 -6 -22 -15 -40 -19 -35 -23
-78 -7 -68 6 3 10 1 10 -4 0 -6 -7 -11 -15 -11 -8 0 -15 -8 -15 -17 0 -14 2
-15 9 -4 13 21 24 -5 16 -40 -5 -22 -4 -29 4 -25 6 4 11 35 11 69 1 34 8 80
16 102 8 22 16 45 17 51 2 7 9 19 15 27 8 9 9 18 3 21 -5 4 -19 -7 -30 -23z
m9 -25 c0 -3 -4 -8 -10 -11 -5 -3 -10 -1 -10 4 0 6 5 11 10 11 6 0 10 -2 10
-4z"/>
<path d="M910 1309 c0 -5 5 -7 10 -4 6 3 10 8 10 11 0 2 -4 4 -10 4 -5 0 -10
-5 -10 -11z"/>
<path d="M1105 1310 c-3 -5 -1 -10 4 -10 6 0 11 5 11 10 0 6 -2 10 -4 10 -3 0
-8 -4 -11 -10z"/>
<path d="M1221 1304 c0 -11 3 -14 6 -6 3 7 2 16 -1 19 -3 4 -6 -2 -5 -13z"/>
<path d="M1371 1304 c0 -11 3 -14 6 -6 3 7 2 16 -1 19 -3 4 -6 -2 -5 -13z"/>
<path d="M1580 1304 c0 -10 3 -14 7 -11 3 4 12 -1 20 -11 13 -15 13 -15 3 5
-14 29 -30 38 -30 17z"/>
<path d="M350 1300 c-9 -6 -10 -10 -3 -10 6 0 15 5 18 10 8 12 4 12 -15 0z"/>
<path d="M792 1293 c-11 -11 -17 -11 -28 -2 -10 8 -14 8 -14 0 0 -6 5 -11 10
-11 14 0 12 -20 -5 -54 -8 -15 -14 -49 -14 -75 l1 -46 8 46 c4 25 15 61 25 78
9 18 14 35 11 38 -3 4 2 12 12 19 9 7 15 15 12 17 -3 3 -11 -2 -18 -10z"/>
<path d="M885 1300 c-3 -5 -1 -10 4 -10 6 0 11 5 11 10 0 6 -2 10 -4 10 -3 0
-8 -4 -11 -10z"/>
<path d="M1333 1290 c6 -10 15 -16 20 -13 13 8 3 26 -16 29 -13 2 -14 -1 -4
-16z"/>
<path d="M1825 1300 c3 -5 11 -10 16 -10 6 0 7 5 4 10 -3 6 -11 10 -16 10 -6
0 -7 -4 -4 -10z"/>
<path d="M1922 1298 c9 -7 23 -17 31 -23 8 -5 18 -21 23 -35 6 -23 6 -24 -11
-10 -17 14 -18 13 -12 -3 4 -11 10 -30 13 -43 8 -32 28 -31 22 1 -3 13 -1 22
4 19 5 -3 6 7 3 23 -6 27 -6 28 11 8 15 -18 16 -18 10 -2 -3 10 -6 20 -6 23 0
2 -24 15 -52 29 -29 14 -46 20 -36 13z"/>
<path d="M2260 1295 c-7 -9 -11 -17 -9 -20 3 -2 10 5 17 15 14 24 10 26 -8 5z"/>
<path d="M159 1289 c-9 -5 -10 -9 -2 -9 6 0 15 -9 18 -20 8 -24 25 -17 25 10
0 21 -21 32 -41 19z"/>
<path d="M650 1286 c0 -9 -7 -30 -15 -46 -9 -17 -12 -30 -7 -30 12 0 37 78 29
87 -4 3 -7 -1 -7 -11z"/>
<path d="M1410 1296 c0 -2 9 -6 20 -9 11 -3 20 -1 20 4 0 5 -9 9 -20 9 -11 0
-20 -2 -20 -4z"/>
<path d="M1790 1298 c0 -2 18 -21 40 -42 22 -21 37 -31 34 -22 -5 13 -74 73
-74 64z"/>
<path d="M2754 1267 c-5 -18 -15 -31 -22 -29 -8 1 -11 -2 -7 -8 3 -5 1 -10 -4
-10 -6 0 -11 -5 -11 -11 0 -5 6 -7 13 -3 12 8 -5 -17 -31 -44 -7 -8 -10 -17
-7 -22 3 -5 -4 -11 -15 -15 -11 -4 -18 -11 -15 -16 3 -5 -12 -16 -34 -25 -22
-9 -39 -21 -38 -27 1 -7 -4 -11 -10 -10 -7 2 -13 -2 -13 -8 0 -6 7 -8 16 -5 9
3 20 6 25 6 6 0 8 4 4 9 -4 8 24 24 46 26 8 0 42 35 34 35 -3 0 4 10 17 23 24
24 44 52 54 77 3 8 12 27 20 42 17 32 17 35 1 41 -9 3 -17 -7 -23 -26z"/>
<path d="M686 1277 c3 -9 0 -25 -7 -34 -12 -14 -12 -16 1 -11 19 6 25 37 10
52 -8 8 -10 7 -4 -7z"/>
<path d="M924 1278 c-4 -6 -8 -24 -9 -40 -2 -28 -1 -28 19 -11 19 17 20 17 7
1 -7 -10 -11 -24 -8 -32 3 -7 0 -19 -6 -25 -8 -8 -8 -11 1 -11 7 0 13 5 13 10
2 12 5 27 9 38 14 37 -9 98 -26 70z m9 -23 c-3 -9 -8 -14 -10 -11 -3 3 -2 9 2
15 9 16 15 13 8 -4z"/>
<path d="M1270 1270 c0 -11 4 -20 9 -20 5 0 7 9 4 20 -3 11 -7 20 -9 20 -2 0
-4 -9 -4 -20z"/>
<path d="M1307 1275 c-4 -8 -2 -15 3 -15 6 0 10 -7 10 -15 0 -8 5 -15 10 -15
13 0 13 3 -4 34 -10 21 -15 23 -19 11z"/>
<path d="M2105 1270 c-3 -11 -4 -24 -1 -29 4 -5 2 -11 -3 -13 -6 -1 3 -19 19
-38 27 -34 28 -34 23 -8 -3 15 -10 26 -15 25 -6 -1 -13 4 -16 12 -2 8 0 11 5
8 5 -3 7 9 5 29 -5 39 -8 42 -17 14z"/>
<path d="M1497 1260 c3 -11 10 -23 16 -27 7 -4 8 0 4 11 -4 10 -7 22 -7 27 0
5 -4 9 -9 9 -5 0 -7 -9 -4 -20z"/>
<path d="M1560 1270 c0 -5 5 -10 11 -10 5 0 7 5 4 10 -3 6 -8 10 -11 10 -2 0
-4 -4 -4 -10z"/>
<path d="M496 1253 c-6 -14 -5 -15 5 -6 7 7 10 15 7 18 -3 3 -9 -2 -12 -12z"/>
<path d="M1395 1252 c-2 -2 -1 -11 2 -20 4 -15 3 -15 -6 -2 -9 12 -13 13 -20
2 -4 -8 -12 -13 -17 -13 -8 1 -9 -4 -5 -29 0 -5 6 -10 11 -10 6 0 9 6 8 13 -2
6 7 12 19 12 20 0 52 29 53 47 0 7 -38 7 -45 0z"/>
<path d="M2148 1230 c2 -16 6 -30 8 -30 2 0 4 14 4 30 0 17 -4 30 -8 30 -5 0
-7 -13 -4 -30z"/>
<path d="M2235 1239 c-4 -12 -3 -25 3 -31 6 -6 11 1 14 21 5 35 -7 42 -17 10z"/>
<path d="M844 1241 c4 -5 1 -22 -5 -38 -7 -15 -13 -41 -15 -58 -2 -16 -6 -40
-9 -52 -3 -13 -1 -23 4 -23 14 0 33 28 26 40 -4 6 1 22 9 35 15 23 15 25 0 25
-14 0 -14 2 -3 16 18 22 20 64 2 64 -8 0 -12 -4 -9 -9z"/>
<path d="M1650 1240 c0 -5 5 -10 11 -10 5 0 7 5 4 10 -3 6 -8 10 -11 10 -2 0
-4 -4 -4 -10z"/>
<path d="M1247 1233 c-4 -3 -7 -11 -7 -17 0 -6 5 -5 12 2 6 6 9 14 7 17 -3 3
-9 2 -12 -2z"/>
<path d="M1810 1229 c0 -5 -4 -7 -10 -4 -5 3 -10 2 -10 -4 0 -5 5 -13 10 -16
6 -3 10 -1 10 4 0 6 7 11 16 11 8 0 12 5 9 10 -8 13 -25 13 -25 -1z"/>
<path d="M1430 1209 c0 -11 5 -17 10 -14 6 3 10 13 10 21 0 8 -4 14 -10 14 -5
0 -10 -9 -10 -21z"/>
<path d="M1320 1209 c0 -5 -4 -7 -10 -4 -6 4 -7 -2 -1 -16 4 -13 13 -24 20
-25 6 -1 8 0 3 2 -5 3 -7 16 -4 29 2 14 2 25 -2 25 -3 0 -6 -5 -6 -11z"/>
<path d="M1468 1214 c-5 -4 -8 -16 -8 -28 0 -14 3 -17 11 -9 6 6 9 19 7 28 -1
9 -6 13 -10 9z"/>
<path d="M1907 1199 c-16 -18 -16 -22 -2 -49 19 -37 22 -37 21 -1 -1 16 -4 27
-8 24 -12 -7 -9 12 4 25 6 6 9 14 7 17 -3 2 -13 -5 -22 -16z"/>
<path d="M660 1191 c0 -25 6 -27 13 -6 4 8 2 17 -3 20 -6 4 -10 -3 -10 -14z"/>
<path d="M954 1176 c-13 -26 -14 -42 -7 -72 l10 -39 8 53 c4 28 11 52 14 52 4
0 7 9 7 20 0 30 -14 24 -32 -14z"/>
<path d="M1500 1200 c-1 -8 -3 -26 -6 -39 -3 -19 -2 -21 9 -12 8 6 17 8 20 4
4 -3 7 6 7 21 0 15 -4 25 -9 22 -5 -4 -12 0 -14 6 -4 9 -6 9 -7 -2z"/>
<path d="M1697 1199 c7 -7 15 -10 18 -7 3 3 -2 9 -12 12 -14 6 -15 5 -6 -5z"/>
<path d="M2073 1198 c0 -7 -4 -21 -8 -30 -4 -11 -3 -18 5 -18 6 0 8 5 5 10 -3
6 0 13 9 16 8 3 12 12 9 20 -6 17 -19 18 -20 2z"/>
<path d="M593 1174 c-10 -14 -30 -39 -45 -57 -15 -17 -26 -32 -24 -34 7 -8 57
18 51 26 -7 12 15 61 28 61 5 0 6 -7 3 -16 -3 -9 -2 -12 5 -9 5 4 17 1 26 -7
15 -12 15 -11 2 10 -8 12 -18 22 -22 22 -5 0 -7 7 -3 15 8 23 -1 18 -21 -11z"/>
<path d="M1285 1175 c7 -33 12 -41 21 -33 3 4 -2 19 -11 35 l-16 28 6 -30z"/>
<path d="M2227 1183 c-11 -10 -8 -35 3 -28 6 3 10 1 10 -4 0 -6 4 -11 9 -11 4
0 6 11 3 25 -4 25 -13 31 -25 18z"/>
<path d="M258 1168 c5 -5 16 -8 23 -6 8 3 3 7 -10 11 -17 4 -21 3 -13 -5z"/>
<path d="M995 1160 c-4 -12 -5 -24 -2 -27 3 -2 8 5 12 17 4 12 5 24 2 27 -3 2
-8 -5 -12 -17z"/>
<path d="M1249 1163 c-1 -10 -2 -22 -4 -28 -1 -5 -3 -14 -3 -19 -1 -5 -10 -2
-19 5 -15 12 -16 12 -10 -3 4 -12 2 -18 -7 -18 -16 0 -38 -24 -30 -33 10 -10
34 4 27 17 -3 6 -1 6 8 -1 15 -15 33 -17 24 -3 -3 5 2 18 12 29 12 15 20 17
29 10 10 -9 11 -4 4 23 -6 18 -10 34 -10 35 0 2 -4 3 -10 3 -5 0 -11 -8 -11
-17z"/>
<path d="M1547 1174 c-10 -10 -9 -52 2 -58 5 -4 12 0 15 6 3 10 9 8 19 -4 8
-10 17 -15 20 -11 4 3 7 -5 8 -18 l0 -24 10 24 c10 25 -5 46 -23 35 -4 -3 -8
3 -8 12 0 10 -3 14 -7 10 -4 -3 -12 3 -18 14 -6 11 -14 17 -18 14z"/>
<path d="M1771 1164 c0 -11 3 -14 6 -6 3 7 2 16 -1 19 -3 4 -6 -2 -5 -13z"/>
<path d="M1864 1172 c5 -9 -15 -28 -49 -48 -12 -7 -24 -33 -33 -75 l-15 -64
-14 30 -13 30 5 -40 c4 -28 1 -46 -9 -60 -17 -23 -21 -65 -6 -65 14 0 13 -33
-1 -47 -13 -13 -3 -36 12 -27 5 3 7 10 4 15 -4 5 -2 9 4 9 5 0 9 12 8 28 -2
23 2 27 26 28 31 1 50 14 21 14 -18 1 -18 1 -1 14 12 9 14 15 6 18 -8 3 -8 8
2 18 18 19 18 42 0 48 -10 3 -12 0 -8 -12 4 -9 2 -16 -3 -16 -5 0 -10 -12 -12
-27 -2 -16 -7 -26 -12 -25 -5 2 -12 -2 -17 -9 -4 -8 -11 -10 -15 -6 -4 4 -2
13 4 19 7 7 12 22 12 34 0 13 4 26 10 29 12 8 45 76 45 95 0 22 15 41 26 34 6
-3 13 3 16 15 5 20 22 30 24 14 6 -89 14 -110 25 -68 7 27 -22 105 -39 105 -5
0 -6 -4 -3 -8z"/>
<path d="M1047 1159 c7 -7 15 -10 18 -7 3 3 -2 9 -12 12 -14 6 -15 5 -6 -5z"/>
<path d="M1948 1152 c-3 -9 -1 -26 3 -37 6 -15 8 -11 8 18 1 40 -4 48 -11 19z"/>
<path d="M2116 1151 c-4 -6 -3 -11 3 -11 6 0 8 -7 5 -15 -4 -8 -1 -15 5 -15
13 0 14 20 2 39 -6 9 -11 10 -15 2z"/>
<path d="M300 1136 c0 -9 7 -16 16 -16 9 0 14 5 12 12 -6 18 -28 21 -28 4z"/>
<path d="M1014 1135 c3 -8 1 -15 -5 -15 -7 0 -8 -17 -3 -47 4 -27 7 -56 6 -66
0 -9 4 -15 9 -11 6 3 7 24 3 50 -6 44 8 80 27 68 5 -3 9 0 9 5 0 6 -7 11 -15
11 -8 0 -15 5 -15 10 0 6 -5 10 -11 10 -6 0 -9 -7 -5 -15z"/>
<path d="M355 1117 c-9 -22 -8 -23 35 -32 54 -11 103 -11 107 0 3 9 -29 13
-104 15 -12 0 -23 8 -26 18 -4 16 -4 16 -12 -1z"/>
<path d="M1744 1116 c-13 -10 -23 -11 -31 -4 -10 8 -13 -9 -13 -82 0 -52 2
-91 5 -88 3 3 6 33 6 68 1 62 15 90 50 102 8 3 11 8 8 12 -3 3 -14 -1 -25 -8z"/>
<path d="M1071 1105 c2 -33 0 -45 -10 -45 -5 0 -11 6 -14 13 -2 6 -2 1 0 -13
3 -14 10 -29 16 -33 9 -6 9 -10 0 -14 -7 -2 -13 -12 -13 -21 1 -15 3 -14 15 2
8 11 13 28 9 38 -3 10 -1 18 5 18 17 0 26 -51 11 -60 -8 -5 -15 -15 -16 -24
-1 -8 -5 -32 -8 -53 -4 -22 -2 -44 5 -53 9 -13 10 -12 5 3 -3 9 -2 17 2 17 4
0 16 31 25 69 14 52 16 75 8 90 -13 23 -5 51 16 51 11 0 12 -8 7 -35 -5 -30
-4 -34 11 -29 13 5 14 9 4 15 -10 6 -10 11 1 24 11 14 11 18 -3 32 -13 14 -19
14 -32 3 -13 -11 -18 -10 -31 6 -14 19 -15 19 -13 -1z"/>
<path d="M2020 1100 c0 -5 5 -10 11 -10 5 0 7 5 4 10 -3 6 -8 10 -11 10 -2 0
-4 -4 -4 -10z"/>
<path d="M2270 1096 c0 -9 5 -16 10 -16 6 0 9 -4 8 -8 -4 -10 51 -62 66 -62 6
0 22 -9 36 -20 42 -33 44 -22 3 15 -21 19 -50 40 -65 46 -16 6 -28 16 -28 21
0 5 -7 16 -15 24 -13 14 -15 14 -15 0z"/>
<path d="M969 1084 c-1 -10 -3 -36 -5 -57 -2 -26 1 -37 9 -34 7 2 10 21 8 53
-3 50 -10 72 -12 38z"/>
<path d="M1527 1093 c-4 -3 -7 -11 -7 -17 0 -6 5 -5 12 2 6 6 9 14 7 17 -3 3
-9 2 -12 -2z"/>
<path d="M1637 1085 c-4 -8 -2 -17 3 -20 6 -4 10 3 10 14 0 25 -6 27 -13 6z"/>
<path d="M1664 1073 c1 -21 2 -22 14 -6 16 22 15 30 -2 30 -8 0 -13 -10 -12
-24z"/>
<path d="M2097 1084 c-3 -5 1 -15 9 -22 16 -14 18 -5 5 17 -5 7 -11 9 -14 5z"/>
<path d="M839 1064 c-15 -19 -21 -44 -9 -44 4 0 6 -10 2 -22 -5 -21 -4 -22 11
-9 9 7 17 25 17 38 0 20 -4 24 -17 19 -15 -5 -15 -4 1 9 11 8 17 17 14 20 -3
3 -11 -2 -19 -11z"/>
<path d="M1257 1069 c7 -7 15 -10 18 -7 3 3 -2 9 -12 12 -14 6 -15 5 -6 -5z"/>
<path d="M1485 1069 c-4 -6 -5 -12 -2 -15 2 -3 7 2 10 11 7 17 1 20 -8 4z"/>
<path d="M1860 1070 c0 -5 5 -10 10 -10 6 0 10 5 10 10 0 6 -4 10 -10 10 -5 0
-10 -4 -10 -10z"/>
<path d="M2008 1066 c-19 -14 -23 -26 -10 -26 4 0 13 9 20 20 14 23 13 24 -10
6z"/>
<path d="M1405 1050 c-3 -6 -8 -38 -11 -73 -3 -34 -6 -78 -8 -97 -2 -19 -4
-54 -5 -78 -1 -26 -5 -41 -11 -37 -5 3 -10 1 -10 -4 0 -6 5 -11 10 -11 6 0 8
-28 4 -77 -3 -43 -3 -75 1 -72 11 11 16 53 25 209 5 85 12 176 15 203 6 46 2
57 -10 37z"/>
<path d="M1926 1045 c-3 -9 -6 -24 -5 -33 0 -9 5 -4 10 12 9 32 6 48 -5 21z"/>
<path d="M1826 1034 c-9 -23 -8 -24 14 -24 23 0 26 13 6 29 -11 9 -15 8 -20
-5z"/>
<path d="M1870 1029 c0 -5 5 -7 10 -4 6 3 10 8 10 11 0 2 -4 4 -10 4 -5 0 -10
-5 -10 -11z"/>
<path d="M723 1018 c-25 -33 -25 -40 1 -23 26 17 35 35 17 35 -5 0 -13 -6 -18
-12z"/>
<path d="M785 1017 c-20 -15 -13 -39 9 -31 16 6 30 -22 16 -31 -6 -4 -10 -11
-10 -18 0 -6 6 -2 14 8 11 15 12 24 3 40 -6 11 -10 26 -9 33 4 15 0 15 -23 -1z"/>
<path d="M2078 1023 c7 -3 16 -2 19 1 4 3 -2 6 -13 5 -11 0 -14 -3 -6 -6z"/>
<path d="M898 1003 c-11 -3 -18 -13 -17 -26 1 -18 2 -19 6 -4 3 11 11 16 19
13 8 -3 14 1 14 9 0 8 -1 14 -2 14 -2 -1 -11 -3 -20 -6z"/>
<path d="M745 991 c-3 -5 -1 -12 5 -16 5 -3 10 1 10 9 0 18 -6 21 -15 7z"/>
<path d="M1143 975 c-6 -14 -7 -25 -2 -25 11 0 22 25 17 39 -1 6 -8 -1 -15
-14z"/>
<path d="M1180 979 c0 -5 5 -7 10 -4 6 3 10 8 10 11 0 2 -4 4 -10 4 -5 0 -10
-5 -10 -11z"/>
<path d="M1025 971 c-2 -5 4 -11 15 -14 11 -3 20 -2 20 3 0 12 -28 21 -35 11z"/>
<path d="M853 954 c-3 -8 -1 -20 4 -25 7 -7 11 -2 11 15 0 29 -6 33 -15 10z"/>
<path d="M1575 960 c-3 -5 -1 -10 4 -10 6 0 11 5 11 10 0 6 -2 10 -4 10 -3 0
-8 -4 -11 -10z"/>
<path d="M1880 937 c-12 -35 -10 -40 8 -21 7 8 10 14 6 14 -4 0 0 8 9 18 14
16 15 19 2 19 -8 0 -19 -14 -25 -30z"/>
<path d="M2018 963 c7 -3 16 -2 19 1 4 3 -2 6 -13 5 -11 0 -14 -3 -6 -6z"/>
<path d="M2555 960 c3 -5 8 -10 11 -10 2 0 4 5 4 10 0 6 -5 10 -11 10 -5 0 -7
-4 -4 -10z"/>
<path d="M1646 947 c3 -8 11 -14 19 -14 20 0 19 4 -5 17 -15 8 -18 8 -14 -3z"/>
<path d="M630 943 c0 -5 -10 -15 -22 -21 -17 -8 -18 -11 -7 -11 19 -1 45 26
35 36 -3 3 -6 2 -6 -4z"/>
<path d="M1500 940 c0 -5 5 -10 11 -10 5 0 7 5 4 10 -3 6 -8 10 -11 10 -2 0
-4 -4 -4 -10z"/>
<path d="M1143 932 c-7 -4 -9 -13 -4 -21 6 -10 10 -9 15 5 8 20 4 25 -11 16z"/>
<path d="M1300 920 c0 -5 5 -10 11 -10 5 0 7 5 4 10 -3 6 -8 10 -11 10 -2 0
-4 -4 -4 -10z"/>
<path d="M955 910 c3 -5 8 -10 11 -10 2 0 4 5 4 10 0 6 -5 10 -11 10 -5 0 -7
-4 -4 -10z"/>
<path d="M1210 909 c0 -5 5 -7 10 -4 6 3 10 8 10 11 0 2 -4 4 -10 4 -5 0 -10
-5 -10 -11z"/>
<path d="M2575 910 c3 -5 8 -10 11 -10 2 0 4 5 4 10 0 6 -5 10 -11 10 -5 0 -7
-4 -4 -10z"/>
<path d="M564 901 c4 -5 0 -12 -6 -14 -7 -3 -3 -6 9 -6 27 -1 39 15 17 23 -22
8 -26 8 -20 -3z"/>
<path d="M640 900 c0 -5 5 -10 11 -10 5 0 7 5 4 10 -3 6 -8 10 -11 10 -2 0 -4
-4 -4 -10z"/>
<path d="M1496 902 c-3 -5 1 -9 9 -9 8 0 15 4 15 9 0 4 -4 8 -9 8 -6 0 -12 -4
-15 -8z"/>
<path d="M826 885 c-3 -8 -1 -15 4 -15 6 0 10 7 10 15 0 8 -2 15 -4 15 -2 0
-6 -7 -10 -15z"/>
<path d="M925 890 c-3 -5 -1 -10 4 -10 6 0 11 5 11 10 0 6 -2 10 -4 10 -3 0
-8 -4 -11 -10z"/>
<path d="M1666 887 c3 -10 9 -15 12 -12 3 3 0 11 -7 18 -10 9 -11 8 -5 -6z"/>
<path d="M1197 879 c7 -7 15 -10 18 -7 3 3 -2 9 -12 12 -14 6 -15 5 -6 -5z"/>
<path d="M1300 879 c0 -5 5 -7 10 -4 6 3 10 8 10 11 0 2 -4 4 -10 4 -5 0 -10
-5 -10 -11z"/>
<path d="M1829 835 c-29 -51 -80 -105 -99 -105 -13 0 -22 -38 -13 -52 4 -7 8
-19 8 -27 0 -8 5 -16 12 -18 9 -3 10 4 3 28 -10 34 -6 49 14 49 6 0 23 18 36
40 14 22 29 40 33 40 5 0 5 5 2 10 -3 6 -2 10 4 10 5 0 13 10 17 23 3 12 13
30 22 40 9 10 11 17 4 17 -7 0 -26 -25 -43 -55z"/>
<path d="M660 870 c0 -5 5 -10 11 -10 5 0 7 5 4 10 -3 6 -8 10 -11 10 -2 0 -4
-4 -4 -10z"/>
<path d="M1007 860 c3 -11 7 -20 9 -20 2 0 4 9 4 20 0 11 -4 20 -9 20 -5 0 -7
-9 -4 -20z"/>
<path d="M1257 865 c3 -8 9 -12 14 -9 12 7 11 11 -5 17 -10 4 -13 1 -9 -8z"/>
<path d="M970 851 c0 -6 4 -12 8 -15 5 -3 9 1 9 9 0 8 -4 15 -9 15 -4 0 -8 -4
-8 -9z"/>
<path d="M2619 842 c11 -8 11 -10 0 -15 -11 -4 -9 -9 6 -22 11 -9 19 -18 18
-20 -7 -12 -2 -26 6 -21 5 4 12 0 14 -6 3 -7 6 -3 6 9 1 12 -7 26 -16 32 -10
5 -18 17 -18 27 0 9 -7 19 -15 21 -12 4 -12 3 -1 -5z"/>
<path d="M726 786 c-32 -43 -34 -54 -2 -24 20 20 41 58 32 58 -2 0 -15 -15
-30 -34z"/>
<path d="M1000 814 c0 -6 6 -17 14 -23 11 -9 16 -9 22 1 4 7 4 10 -1 6 -4 -4
-14 0 -21 10 -7 9 -14 12 -14 6z"/>
<path d="M1457 809 c7 -7 15 -10 18 -7 3 3 -2 9 -12 12 -14 6 -15 5 -6 -5z"/>
<path d="M1532 779 c6 -16 12 -29 13 -27 6 6 -8 58 -16 58 -4 0 -3 -14 3 -31z"/>
<path d="M627 770 c-3 -11 -1 -18 3 -15 5 3 10 -2 12 -11 3 -16 4 -16 17 -1
12 15 11 17 -4 17 -11 0 -15 5 -11 15 3 8 2 15 -3 15 -5 0 -11 -9 -14 -20z"/>
<path d="M1033 773 c-16 -6 -5 -33 13 -33 7 0 16 -11 20 -25 3 -14 10 -25 14
-25 5 0 7 -18 6 -40 -2 -24 1 -37 7 -33 6 4 8 -3 4 -16 -7 -27 1 -53 15 -45 8
5 6 40 -8 131 -5 35 -52 92 -71 86z"/>
<path d="M1461 714 c0 -11 3 -14 6 -6 3 7 2 16 -1 19 -3 4 -6 -2 -5 -13z"/>
<path d="M757 706 c-4 -10 -1 -13 8 -9 8 3 12 9 9 14 -7 12 -11 11 -17 -5z"/>
<path d="M660 695 c0 -8 2 -15 4 -15 2 0 6 7 10 15 3 8 1 15 -4 15 -6 0 -10
-7 -10 -15z"/>
<path d="M1546 691 c-4 -5 -2 -12 4 -16 5 -3 10 -15 10 -25 0 -10 4 -21 9 -25
5 -3 5 11 -1 32 -12 44 -14 48 -22 34z"/>
<path d="M1687 686 c-4 -10 -5 -21 -2 -24 9 -9 17 6 13 25 -3 17 -4 17 -11 -1z"/>
<path d="M810 670 c-6 -11 -8 -20 -6 -20 3 0 10 9 16 20 6 11 8 20 6 20 -3 0
-10 -9 -16 -20z"/>
<path d="M630 669 c0 -5 5 -7 10 -4 6 3 10 8 10 11 0 2 -4 4 -10 4 -5 0 -10
-5 -10 -11z"/>
<path d="M1431 664 c0 -11 3 -14 6 -6 3 7 2 16 -1 19 -3 4 -6 -2 -5 -13z"/>
<path d="M2690 673 c0 -4 8 -17 16 -28 15 -20 16 -20 12 4 -3 22 -28 44 -28
24z"/>
<path d="M1201 644 c0 -11 3 -14 6 -6 3 7 2 16 -1 19 -3 4 -6 -2 -5 -13z"/>
<path d="M1459 638 c-1 -7 -2 -25 -3 -40 -1 -15 -4 -30 -8 -33 -8 -8 -38 5
-38 17 0 5 4 7 9 4 5 -4 7 4 3 16 l-5 22 -8 -22 c-5 -12 -4 -32 1 -44 5 -13 9
-17 9 -9 1 11 5 10 15 -4 13 -18 14 -18 21 6 4 13 13 28 19 32 8 6 8 10 0 13
-6 3 -9 16 -6 29 2 14 2 25 -2 25 -3 0 -7 -6 -7 -12z"/>
<path d="M1519 608 c4 -12 13 -23 20 -24 6 -1 7 0 1 3 -5 2 -10 13 -10 24 0
10 -4 19 -10 19 -5 0 -6 -9 -1 -22z"/>
<path d="M1281 604 c0 -11 3 -14 6 -6 3 7 2 16 -1 19 -3 4 -6 -2 -5 -13z"/>
<path d="M1323 588 l-12 -33 19 24 c21 24 26 41 12 41 -4 0 -13 -15 -19 -32z"/>
<path d="M1627 581 c-15 -22 -27 -44 -27 -49 0 -5 -12 -19 -26 -31 -14 -12
-24 -25 -21 -28 8 -7 57 28 57 42 0 6 9 22 20 35 11 12 17 26 15 31 -3 4 1 9
10 11 9 2 12 8 6 16 -5 9 -15 2 -34 -27z"/>
<path d="M1180 595 c0 -8 2 -15 4 -15 2 0 6 7 10 15 3 8 1 15 -4 15 -6 0 -10
-7 -10 -15z"/>
<path d="M2730 606 c0 -2 7 -7 16 -10 8 -3 12 -2 9 4 -6 10 -25 14 -25 6z"/>
<path d="M1146 575 c4 -8 8 -15 10 -15 2 0 4 7 4 15 0 8 -4 15 -10 15 -5 0 -7
-7 -4 -15z"/>
<path d="M1200 580 c0 -5 5 -10 11 -10 5 0 7 5 4 10 -3 6 -8 10 -11 10 -2 0
-4 -4 -4 -10z"/>
<path d="M1364 581 c4 -7 -2 -19 -15 -30 -12 -10 -23 -25 -25 -34 -3 -26 5
-20 17 9 5 15 12 24 15 21 3 -3 1 -14 -5 -26 -7 -13 -8 -22 -1 -26 5 -3 10 3
10 14 0 11 5 23 10 26 14 8 13 42 -2 51 -7 4 -8 3 -4 -5z"/>
<path d="M2431 574 c0 -11 3 -14 6 -6 3 7 2 16 -1 19 -3 4 -6 -2 -5 -13z"/>
<path d="M1470 566 c0 -2 8 -10 18 -17 15 -13 16 -12 3 4 -13 16 -21 21 -21
13z"/>
<path d="M1548 563 c7 -3 16 -2 19 1 4 3 -2 6 -13 5 -11 0 -14 -3 -6 -6z"/>
<path d="M856 543 c-6 -14 -5 -15 5 -6 7 7 10 15 7 18 -3 3 -9 -2 -12 -12z"/>
<path d="M1210 546 c0 -8 5 -18 10 -21 6 -3 10 1 10 9 0 8 -4 18 -10 21 -5 3
-10 -1 -10 -9z"/>
<path d="M1117 543 c-4 -3 4 -16 18 -28 13 -13 21 -26 17 -31 -4 -4 -1 -4 7 1
12 7 11 10 -2 20 -9 7 -14 14 -12 17 3 3 -1 10 -8 16 -8 7 -17 9 -20 5z"/>
<path d="M1170 547 c0 -19 49 -71 83 -88 20 -11 37 -17 37 -13 0 4 6 1 14 -5
13 -11 132 -14 121 -3 -3 3 0 11 6 19 16 19 -1 16 -23 -4 -17 -16 -24 -9 -19
20 0 4 -6 7 -15 7 -13 0 -14 -3 -5 -14 11 -13 4 -14 -46 -9 -74 7 -93 21 -64
44 12 10 21 23 21 30 0 7 -10 1 -22 -14 l-22 -27 -33 32 c-18 18 -33 29 -33
25z"/>
<path d="M1517 520 c-3 -11 -1 -20 5 -20 5 0 6 -9 3 -20 -3 -11 -2 -20 4 -20
5 0 7 16 5 37 -6 45 -10 50 -17 23z"/>
<path d="M2450 500 c0 -5 5 -10 11 -10 5 0 7 5 4 10 -3 6 -8 10 -11 10 -2 0
-4 -4 -4 -10z"/>
<path d="M1285 489 c-4 -6 -5 -12 -2 -15 2 -3 7 2 10 11 7 17 1 20 -8 4z"/>
<path d="M2383 489 c9 -5 17 -19 17 -29 0 -11 5 -20 10 -20 6 0 10 6 10 14 0
29 -13 46 -34 46 -19 -1 -19 -2 -3 -11z"/>
<path d="M1325 480 c3 -5 8 -10 11 -10 2 0 4 5 4 10 0 6 -5 10 -11 10 -5 0 -7
-4 -4 -10z"/>
<path d="M1180 466 c0 -9 7 -16 15 -16 8 0 21 -12 29 -27 13 -23 15 -25 15 -8
0 11 -13 30 -30 43 -23 19 -29 20 -29 8z"/>
<path d="M1478 462 c-16 -2 -28 -8 -28 -13 0 -13 47 -11 55 2 9 14 5 15 -27
11z"/>
<path d="M2770 456 c0 -2 7 -9 15 -16 13 -11 14 -10 9 4 -5 14 -24 23 -24 12z"/>
<path d="M1175 417 c-11 -11 -14 -17 -7 -13 7 4 12 2 12 -6 0 -8 5 -6 11 5 16
28 6 36 -16 14z"/>
<path d="M1595 419 c-4 -6 -5 -12 -2 -15 2 -3 7 2 10 11 7 17 1 20 -8 4z"/>
<path d="M2800 409 c0 -5 5 -7 10 -4 6 3 10 8 10 11 0 2 -4 4 -10 4 -5 0 -10
-5 -10 -11z"/>
<path d="M1550 392 c0 -13 -4 -20 -10 -17 -5 3 -10 0 -10 -7 0 -16 17 -44 23
-38 9 11 27 74 22 78 -3 3 -5 -1 -5 -9 0 -11 -2 -11 -10 1 -8 12 -10 10 -10
-8z"/>
<path d="M2420 394 c0 -8 5 -12 10 -9 6 4 8 11 5 16 -9 14 -15 11 -15 -7z"/>
<path d="M2826 385 c4 -8 10 -15 15 -15 4 0 15 -15 24 -34 9 -19 26 -42 38
-53 19 -16 20 -16 8 0 -7 9 -10 17 -5 17 5 0 1 6 -8 13 -9 8 -18 19 -20 26 -3
13 -45 61 -53 61 -2 0 -2 -7 1 -15z"/>
<path d="M1335 380 c-3 -6 1 -7 9 -4 18 7 21 14 7 14 -6 0 -13 -4 -16 -10z"/>
<path d="M1780 366 c0 -9 5 -16 10 -16 6 0 10 4 10 9 0 6 -4 13 -10 16 -5 3
-10 -1 -10 -9z"/>
<path d="M1040 342 c-19 -9 -41 -23 -48 -29 -11 -11 -10 -13 6 -13 11 0 22 7
26 15 3 8 12 15 19 15 8 0 20 7 27 15 15 18 14 18 -30 -3z"/>
<path d="M1700 341 c0 -5 5 -13 10 -16 6 -3 10 -2 10 4 0 5 -4 13 -10 16 -5 3
-10 2 -10 -4z"/>
<path d="M1957 330 c7 -25 23 -37 23 -17 0 8 -6 20 -14 26 -12 10 -13 8 -9 -9z"/>
<path d="M2140 331 c0 -6 4 -13 10 -16 6 -3 7 1 4 9 -7 18 -14 21 -14 7z"/>
<path d="M1455 320 c-3 -5 1 -10 10 -10 9 0 13 5 10 10 -3 6 -8 10 -10 10 -2
0 -7 -4 -10 -10z"/>
<path d="M1462 280 c0 -14 2 -19 5 -12 2 6 2 18 0 25 -3 6 -5 1 -5 -13z"/>
<path d="M2086 267 c3 -10 9 -15 12 -12 3 3 0 11 -7 18 -10 9 -11 8 -5 -6z"/>
<path d="M959 270 c0 -3 -2 -15 -5 -27 -2 -13 0 -23 5 -23 14 0 23 32 11 44
-5 5 -10 8 -11 6z"/>
<path d="M1530 229 c-14 -50 -7 -77 8 -29 5 19 13 43 17 53 4 10 3 17 -4 17
-5 0 -15 -18 -21 -41z"/>
<path d="M2916 245 c4 -8 10 -15 15 -15 5 0 9 7 9 15 0 8 -7 15 -15 15 -9 0
-12 -6 -9 -15z"/>
<path d="M2340 244 c0 -13 18 -39 24 -34 2 3 -2 14 -10 24 -8 11 -14 16 -14
10z"/>
<path d="M1381 214 c0 -11 3 -14 6 -6 3 7 2 16 -1 19 -3 4 -6 -2 -5 -13z"/>
<path d="M2938 208 c7 -7 12 -20 12 -30 0 -20 16 -24 23 -5 7 18 -12 47 -30
47 -13 0 -14 -3 -5 -12z"/>
<path d="M1581 184 c0 -11 3 -14 6 -6 3 7 2 16 -1 19 -3 4 -6 -2 -5 -13z"/>
<path d="M2290 156 c0 -8 4 -17 9 -20 5 -4 7 3 4 14 -6 23 -13 26 -13 6z"/>
<path d="M1664 105 c-3 -8 -4 -20 -2 -27 3 -7 7 -1 10 15 6 29 1 36 -8 12z"/>
<path d="M2165 98 c-4 -11 0 -53 5 -53 1 0 3 -8 5 -18 8 -40 16 -29 10 13 -3
25 -7 51 -7 58 -1 6 -3 12 -5 12 -2 0 -6 -6 -8 -12z"/>
<path d="M1790 75 c0 -20 33 -65 48 -65 11 0 13 3 5 8 -6 4 -16 20 -22 35 -9
23 -31 38 -31 22z"/>
<path d="M2233 58 c-2 -16 1 -18 10 -9 7 7 8 14 1 21 -6 6 -10 2 -11 -12z"/>
<path d="M2100 60 c0 -5 5 -10 11 -10 5 0 7 5 4 10 -3 6 -8 10 -11 10 -2 0 -4
-4 -4 -10z"/>
<path d="M2250 30 c0 -5 5 -10 11 -10 5 0 7 5 4 10 -3 6 -8 10 -11 10 -2 0 -4
-4 -4 -10z"/>
</g>
</svg>
