<?xml version="1.0" standalone="no"?>
<!DOCTYPE svg PUBLIC "-//W3C//DTD SVG 20010904//EN"
 "http://www.w3.org/TR/2001/REC-SVG-20010904/DTD/svg10.dtd">
<svg version="1.0" xmlns="http://www.w3.org/2000/svg"
 width="300.000000pt" height="300.000000pt" viewBox="0 0 300.000000 300.000000"
 preserveAspectRatio="xMidYMid meet">
<metadata>
Created by potrace 1.10, written by Peter Selinger 2001-2011
</metadata>
<g transform="translate(0.000000,300.000000) scale(0.100000,-0.100000)"
fill="#000000" stroke="none">
<path d="M1322 2479 c-32 -21 -72 -83 -72 -113 0 -13 -4 -12 -31 1 -40 20
-121 13 -157 -14 -47 -34 -73 -99 -70 -171 2 -34 2 -62 2 -62 -1 0 -19 7 -40
16 -70 29 -163 -6 -199 -76 -21 -41 -22 -1137 -1 -1216 34 -129 127 -239 254
-301 l76 -38 272 -3 c271 -3 272 -3 351 23 115 39 186 89 266 187 45 56 57 80
171 356 53 128 121 282 151 344 43 86 55 121 55 157 0 122 -114 177 -238 115
-70 -35 -120 -94 -185 -222 -64 -126 -90 -172 -97 -172 -3 0 -4 196 -2 436 3
426 2 437 -18 480 -37 76 -128 112 -203 81 l-37 -16 0 55 c0 110 -59 174 -160
174 -39 0 -65 -7 -88 -21z m130 -10 c54 -14 88 -62 93 -135 6 -71 23 -93 60
-76 63 29 152 0 182 -58 10 -19 12 -126 10 -461 -1 -281 2 -440 8 -446 27 -25
35 -22 72 29 21 29 47 72 57 96 11 23 23 42 28 42 4 0 8 7 8 15 0 27 37 88 77
129 93 95 226 105 266 21 13 -28 14 -33 2 -29 -8 3 -17 13 -20 22 -6 20 -37
41 -76 52 -30 9 -96 -20 -145 -63 -29 -25 -94 -112 -94 -126 0 -34 -147 -276
-180 -296 -6 -4 -10 16 -10 57 2 330 -9 928 -18 944 -35 65 -109 88 -165 50
-59 -40 -61 -49 -60 -399 0 -175 -4 -320 -8 -323 -5 -2 -8 182 -9 410 0 229
-3 429 -7 446 -11 58 -65 97 -125 91 -10 -1 -18 2 -18 7 0 12 27 12 72 1z
m-117 -37 c-23 -22 -41 -49 -42 -63 -1 -13 -2 -219 -3 -457 0 -238 -4 -431 -9
-428 -4 3 -8 176 -8 384 -1 327 -4 384 -17 411 -27 52 -99 77 -146 51 -71 -39
-70 -32 -70 -490 -1 -259 -4 -410 -10 -410 -6 0 -10 110 -10 293 0 162 -3 297
-7 301 -5 4 -8 11 -8 15 0 15 -57 60 -83 65 -15 3 -45 -1 -67 -9 -22 -8 -36
-14 -31 -15 4 0 -2 -9 -15 -19 l-24 -19 -3 -574 -3 -573 27 -70 c43 -111 119
-196 219 -244 83 -41 112 -44 352 -42 222 3 237 3 293 16 54 11 24 -10 -33
-24 -58 -14 -414 -14 -505 0 -35 5 -86 21 -114 34 -62 30 -137 86 -138 103 0
6 -4 12 -9 12 -12 0 -54 68 -54 86 0 8 -4 14 -9 14 -5 0 -6 5 -3 10 3 6 2 10
-4 10 -31 0 -35 85 -36 664 l0 578 42 37 c35 31 50 38 92 40 28 1 51 -2 51 -8
0 -12 48 -7 61 6 5 5 11 44 12 86 3 69 6 80 31 106 46 48 78 57 142 39 53 -15
55 -15 69 5 8 12 15 27 15 33 0 26 56 79 90 83 2 1 -14 -16 -35 -37z m143 -28
l22 -25 0 -433 c0 -457 2 -473 46 -464 18 3 19 17 24 343 4 249 8 346 18 362
29 52 98 58 143 14 l29 -29 0 -500 c0 -430 2 -501 15 -512 8 -7 20 -10 27 -7
24 9 130 166 180 268 52 104 110 179 159 205 39 20 102 18 122 -3 35 -39 31
-63 -31 -188 -52 -105 -95 -204 -234 -543 -72 -173 -196 -281 -365 -317 -83
-18 -427 -20 -505 -4 -165 35 -290 168 -317 339 -15 91 -15 1067 0 1109 21 59
97 79 146 37 l28 -24 5 -313 c4 -273 7 -313 21 -322 9 -6 24 -7 33 -4 14 6 16
47 16 432 l0 425 29 32 c38 43 89 44 129 5 l27 -27 5 -397 c4 -355 7 -397 22
-406 12 -8 21 -7 32 2 14 12 16 65 16 465 0 399 2 454 16 474 34 48 102 51
142 6z m852 -840 c0 -8 -5 -12 -10 -9 -6 4 -8 11 -5 16 9 14 15 11 15 -7z
m-69 -166 c-33 -68 -83 -179 -111 -248 -29 -69 -61 -143 -71 -166 -10 -22 -19
-48 -19 -56 0 -9 -6 -23 -12 -30 -7 -7 -14 -20 -16 -28 -15 -68 -109 -191
-192 -252 -34 -24 -114 -68 -125 -68 -20 0 3 20 49 42 72 36 153 108 197 177
19 31 57 108 83 171 125 303 142 341 218 500 28 58 53 100 55 93 2 -6 -23 -67
-56 -135z"/>
</g>
</svg>
