<?xml version="1.0" standalone="no"?>
<!DOCTYPE svg PUBLIC "-//W3C//DTD SVG 20010904//EN"
 "http://www.w3.org/TR/2001/REC-SVG-20010904/DTD/svg10.dtd">
<svg version="1.0" xmlns="http://www.w3.org/2000/svg"
 width="300.000000pt" height="300.000000pt" viewBox="0 0 300.000000 300.000000"
 preserveAspectRatio="xMidYMid meet">
<metadata>
Created by potrace 1.10, written by Peter Selinger 2001-2011
</metadata>
<g transform="translate(0.000000,300.000000) scale(0.100000,-0.100000)"
fill="#000000" stroke="none">
<path d="M152 2388 c-19 -19 -17 -1921 2 -1937 10 -8 377 -10 1377 -9 l1364 3
3 958 c1 649 -1 964 -8 978 -11 19 -34 19 -1368 19 -1043 0 -1361 -3 -1370
-12z m2703 -20 c3 -3 9 -21 11 -40 5 -32 5 -33 -8 -8 l-14 25 -1299 3 c-715 1
-1310 0 -1322 -3 -18 -4 -22 -12 -23 -48 0 -23 -2 -432 -4 -909 -4 -813 -3
-867 13 -882 16 -14 150 -16 1316 -16 1068 0 1301 2 1312 13 11 11 13 163 13
828 0 447 -3 835 -6 860 -4 33 -1 56 10 75 14 26 15 -53 16 -883 l0 -913 -27
-1 c-16 0 -46 -2 -68 -3 -108 -8 -2590 -5 -2598 3 -9 9 -18 1888 -9 1904 5 10
2677 5 2687 -5z m-21 -50 c-63 -110 -379 -487 -619 -737 -109 -114 -257 -247
-321 -290 l-47 -31 -312 0 -312 0 -69 49 c-119 84 -345 305 -590 577 -196 218
-344 403 -344 430 0 12 174 14 1311 14 1045 0 1309 -3 1303 -12z m5 -52 c-7
-14 -16 -26 -21 -26 -5 0 -1 14 7 31 20 37 31 33 14 -5z m-2581 -72 c146 -225
659 -790 829 -913 l61 -44 -106 -71 c-112 -75 -174 -117 -182 -126 -3 -3 -25
-18 -50 -33 l-45 -28 35 31 c19 17 52 46 74 63 21 18 43 37 50 42 6 6 33 28
60 49 77 62 110 95 103 102 -5 6 -741 -588 -792 -639 l-20 -21 22 15 c12 8
212 146 444 308 416 290 422 294 454 282 21 -7 134 -11 345 -11 297 0 316 1
356 21 27 12 49 17 57 12 8 -4 190 -143 405 -307 295 -226 389 -303 381 -312
-8 -10 -133 -11 -582 -8 -315 3 -867 1 -1227 -4 -654 -9 -654 -9 581 -10 1225
-2 1237 -2 1242 18 4 14 -5 29 -31 51 -21 18 -185 167 -366 333 -180 166 -332
303 -337 304 -28 11 2 -25 78 -94 243 -221 277 -254 269 -254 -5 0 -31 18 -60
40 -28 22 -61 48 -74 58 -12 9 -28 22 -35 27 -6 6 -28 21 -47 35 -19 13 -49
35 -66 49 -66 55 -77 63 -104 80 l-29 17 54 43 c168 134 596 617 766 863 l49
72 0 -816 c0 -448 3 -836 6 -862 l7 -46 -1307 0 -1306 0 0 859 c0 473 -3 868
-7 878 -9 27 2 13 45 -53z m333 -371 c13 -16 12 -17 -3 -4 -10 7 -18 15 -18
17 0 8 8 3 21 -13z m114 -131 c-3 -3 -6 -3 -7 -1 -2 2 -14 18 -28 34 l-25 30
32 -29 c18 -16 31 -32 28 -34z m105 -107 c7 -11 -9 3 -38 30 -28 28 -52 54
-52 59 0 9 67 -57 90 -89z m1480 30 c-24 -25 -46 -45 -49 -45 -3 0 15 20 39
45 24 25 46 45 49 45 3 0 -15 -20 -39 -45z m-1374 -132 c110 -106 150 -142
212 -187 57 -41 61 -46 35 -46 -10 0 -61 39 -113 88 -141 130 -234 222 -224
222 5 0 46 -35 90 -77z m1324 73 c0 -2 -8 -10 -17 -17 -16 -13 -17 -12 -4 4
13 16 21 21 21 13z m-176 -175 c-62 -61 -122 -110 -159 -130 l-60 -31 -252 0
c-157 0 -254 4 -258 10 -4 7 85 10 260 10 l265 0 43 28 c23 15 50 34 61 42 37
29 171 153 174 161 2 5 9 9 15 9 6 0 -33 -44 -89 -99z m-781 -141 c20 0 37 -5
37 -11 0 -10 -116 -11 -134 -1 -14 8 18 23 39 17 11 -2 37 -5 58 -5z"/>
<path d="M660 1876 c0 -2 8 -10 18 -17 15 -13 16 -12 3 4 -13 16 -21 21 -21
13z"/>
<path d="M815 1710 c27 -27 51 -50 54 -50 3 0 -17 23 -44 50 -27 28 -51 50
-54 50 -3 0 17 -22 44 -50z"/>
<path d="M2129 1593 c-13 -16 -12 -17 4 -4 9 7 17 15 17 17 0 8 -8 3 -21 -13z"/>
<path d="M1000 1527 c43 -47 159 -145 190 -162 21 -12 13 -4 -55 50 -33 26
-87 73 -120 104 -55 51 -56 52 -15 8z"/>
<path d="M2074 1538 l-29 -33 33 29 c30 28 37 36 29 36 -2 0 -16 -15 -33 -32z"/>
<path d="M1949 1423 c-13 -16 -12 -17 4 -4 16 13 21 21 13 21 -2 0 -10 -8 -17
-17z"/>
<path d="M1899 1383 c-13 -16 -12 -17 4 -4 16 13 21 21 13 21 -2 0 -10 -8 -17
-17z"/>
<path d="M1219 1347 c4 -4 66 -6 137 -5 l129 3 -137 5 c-75 3 -134 1 -129 -3z"/>
<path d="M1723 1333 c20 -2 54 -2 75 0 20 2 3 4 -38 4 -41 0 -58 -2 -37 -4z"/>
<path d="M2738 1588 c-2 -260 -1 -576 2 -703 3 -132 7 68 8 473 1 386 0 702
-3 702 -2 0 -6 -213 -7 -472z"/>
<path d="M281 1344 c0 -11 3 -14 6 -6 3 7 2 16 -1 19 -3 4 -6 -2 -5 -13z"/>
<path d="M283 1140 c0 -41 2 -58 4 -37 2 20 2 54 0 75 -2 20 -4 3 -4 -38z"/>
<path d="M2032 1111 c-8 -4 -131 -9 -274 -9 -143 -1 -263 -4 -266 -7 -3 -3
114 -5 259 -5 218 0 269 3 285 15 20 15 18 20 -4 6z"/>
<path d="M1438 1093 c6 -2 18 -2 25 0 6 3 1 5 -13 5 -14 0 -19 -2 -12 -5z"/>
<path d="M830 875 l-295 -204 -75 -3 -75 -2 74 -3 75 -4 104 71 c340 232 508
351 492 350 -3 -1 -138 -93 -300 -205z"/>
<path d="M281 1044 c0 -11 3 -14 6 -6 3 7 2 16 -1 19 -3 4 -6 -2 -5 -13z"/>
<path d="M280 785 c0 -76 3 -136 6 -132 7 7 6 259 -1 266 -3 2 -5 -58 -5 -134z"/>
</g>
</svg>
