<?xml version="1.0" standalone="no"?>
<!DOCTYPE svg PUBLIC "-//W3C//DTD SVG 20010904//EN"
 "http://www.w3.org/TR/2001/REC-SVG-20010904/DTD/svg10.dtd">
<svg version="1.0" xmlns="http://www.w3.org/2000/svg"
 width="225.000000pt" height="225.000000pt" viewBox="0 0 225.000000 225.000000"
 preserveAspectRatio="xMidYMid meet">
<metadata>
Created by potrace 1.10, written by Peter Selinger 2001-2011
</metadata>
<g transform="translate(0.000000,225.000000) scale(0.100000,-0.100000)"
fill="#000000" stroke="none">
<path d="M1005 2103 c-414 -35 -783 -267 -929 -585 -44 -93 -66 -182 -65 -249
l2 -54 8 61 c16 124 61 243 130 346 49 73 174 201 239 245 78 53 232 130 310
156 193 64 453 80 685 42 120 -19 292 -85 411 -158 218 -134 383 -353 416
-552 5 -33 13 -80 18 -105 l7 -45 2 59 c2 109 -56 268 -143 390 -60 84 -189
204 -282 262 -230 144 -524 212 -809 187z"/>
<path d="M1020 1979 c-52 -4 -115 -12 -140 -17 -25 -6 -61 -14 -80 -17 -19 -3
-39 -9 -45 -13 -5 -4 -28 -14 -50 -21 -173 -58 -350 -186 -450 -326 -38 -53
-109 -185 -100 -185 2 0 -2 -15 -9 -32 -18 -42 -21 -271 -6 -330 25 -95 99
-222 180 -312 43 -46 51 -61 46 -82 -14 -53 -90 -202 -138 -268 -67 -92 -67
-102 -3 -98 114 6 288 74 419 165 l48 33 86 -23 c89 -23 217 -45 287 -48 86
-4 275 17 370 41 55 14 105 27 110 28 30 7 161 77 236 127 48 32 90 55 95 51
4 -4 4 -2 1 4 -3 6 14 30 39 55 24 24 57 62 72 84 15 22 30 42 33 45 14 11 71
138 85 190 19 72 18 241 -2 326 -27 118 -116 264 -213 349 -19 16 -39 35 -45
40 -43 39 -245 155 -272 155 -2 0 -23 9 -47 19 -39 18 -82 31 -117 36 -202 29
-265 33 -390 24z m348 -33 c373 -81 648 -310 723 -604 106 -415 -250 -827
-784 -906 -179 -27 -340 -17 -518 33 l-98 28 -63 -44 c-120 -84 -259 -140
-416 -167 l-32 -6 38 53 c57 76 116 182 147 264 l28 72 -70 81 c-85 99 -137
193 -163 296 -78 304 86 614 420 793 90 48 227 94 330 111 41 6 82 13 90 15
36 9 302 -5 368 -19z"/>
<path d="M511 1287 c-67 -39 -67 -141 -1 -180 55 -33 121 -10 146 50 17 40 7
89 -26 118 -25 22 -89 29 -119 12z m106 -31 c42 -36 43 -85 2 -120 -60 -51
-139 -17 -139 59 0 75 79 110 137 61z"/>
<path d="M1054 1266 c-45 -45 -47 -92 -5 -138 25 -28 36 -33 75 -33 64 0 101
37 101 101 0 39 -5 50 -33 75 -46 42 -93 40 -138 -5z m138 -16 c45 -55 4 -140
-67 -140 -66 0 -107 71 -74 131 23 43 109 48 141 9z"/>
<path d="M1641 1287 c-14 -6 -34 -27 -44 -45 -17 -29 -18 -39 -8 -71 14 -49
40 -71 90 -78 36 -5 44 -2 76 30 25 25 35 44 35 66 0 84 -77 135 -149 98z
m103 -32 c36 -33 36 -83 0 -119 -29 -28 -59 -33 -97 -15 -50 23 -56 97 -11
137 33 29 74 28 108 -3z"/>
<path d="M11 1121 c-2 -114 65 -281 164 -410 55 -71 56 -74 44 -105 -30 -72
-96 -176 -173 -269 -33 -40 -39 -55 -39 -93 0 -36 5 -51 27 -72 25 -26 31 -27
119 -26 153 3 333 57 479 146 l83 50 91 -21 c205 -47 386 -50 584 -11 102 20
244 67 325 107 140 70 298 203 381 320 84 117 144 277 144 384 0 60 -7 63 -11
4 -1 -22 -7 -45 -12 -52 -5 -7 -6 -16 -3 -21 9 -15 -22 -109 -61 -187 -114
-226 -328 -404 -598 -495 -47 -16 -85 -27 -85 -25 0 2 -21 -2 -47 -10 -86 -25
-136 -30 -298 -30 -149 0 -207 7 -310 34 -85 24 -104 23 -148 -7 -58 -40 -205
-112 -228 -112 -10 0 -20 -4 -23 -8 -3 -5 -29 -14 -58 -20 -29 -6 -66 -14 -83
-18 -68 -15 -187 -16 -212 -3 -30 16 -56 63 -48 88 3 10 37 58 75 107 63 80
138 207 154 259 4 15 -10 40 -53 93 -91 114 -152 255 -170 389 l-8 68 -2 -54z"/>
</g>
</svg>
