<svg width="44" height="44" viewBox="0 0 44 44" fill="none" xmlns="http://www.w3.org/2000/svg">
<path d="M18.3335 25.6665C18.9309 26.2763 19.6441 26.7607 20.4311 27.0914C21.2181 27.4221 22.0632 27.5925 22.9168 27.5925C23.7705 27.5925 24.6156 27.4221 25.4026 27.0914C26.1896 26.7607 26.9027 26.2763 27.5002 25.6665L34.8335 18.3332C36.0491 17.1176 36.732 15.469 36.732 13.7499C36.732 12.0308 36.0491 10.3821 34.8335 9.16655C33.6179 7.95097 31.9692 7.26807 30.2502 7.26807C28.5311 7.26807 26.8824 7.95097 25.6668 9.16655L24.7502 10.0832" stroke="#ECEFF4" stroke-width="3.66667" stroke-linecap="round" stroke-linejoin="round"/>
<path d="M25.6665 18.3332C25.0691 17.7234 24.356 17.239 23.569 16.9083C22.782 16.5776 21.9369 16.4072 21.0832 16.4072C20.2295 16.4072 19.3845 16.5776 18.5974 16.9083C17.8104 17.239 17.0973 17.7234 16.4999 18.3332L9.16655 25.6665C7.95097 26.8821 7.26807 28.5307 7.26807 30.2498C7.26807 31.9689 7.95097 33.6176 9.16655 34.8332C10.3821 36.0487 12.0308 36.7316 13.7499 36.7316C15.469 36.7316 17.1176 36.0487 18.3332 34.8332L19.2499 33.9165" stroke="#ECEFF4" stroke-width="3.66667" stroke-linecap="round" stroke-linejoin="round"/>
</svg>
