<svg width="51" height="48" viewBox="0 0 51 48" fill="none" xmlns="http://www.w3.org/2000/svg">
<path d="M40.375 14H10.625C8.27779 14 6.375 15.7909 6.375 18V36C6.375 38.2091 8.27779 40 10.625 40H40.375C42.7222 40 44.625 38.2091 44.625 36V18C44.625 15.7909 42.7222 14 40.375 14Z" stroke="#ECEFF4" stroke-width="3.66667" stroke-linecap="round" stroke-linejoin="round"/>
<path d="M17 14V10C17 8.93913 17.4478 7.92172 18.2448 7.17157C19.0418 6.42143 20.1228 6 21.25 6H29.75C30.8772 6 31.9582 6.42143 32.7552 7.17157C33.5522 7.92172 34 8.93913 34 10V14" stroke="#ECEFF4" stroke-width="3.66667" stroke-linecap="round" stroke-linejoin="round"/>
<path d="M25.5 24V24.02" stroke="#ECEFF4" stroke-width="3.66667" stroke-linecap="round" stroke-linejoin="round"/>
<path d="M6.375 26C12.3071 28.8134 18.8573 30.2789 25.5 30.2789C32.1427 30.2789 38.6929 28.8134 44.625 26" stroke="#ECEFF4" stroke-width="3.66667" stroke-linecap="round" stroke-linejoin="round"/>
</svg>
